<?xml version="1.0" encoding="utf-8"?>
<!-- Generator: Adobe Illustrator 18.1.1, SVG Export Plug-In . SVG Version: 6.00 Build 0)  -->
<svg version="1.1"
	 id="svg2" xmlns:cc="http://creativecommons.org/ns#" xmlns:dc="http://purl.org/dc/elements/1.1/" xmlns:svg="http://www.w3.org/2000/svg" xmlns:rdf="http://www.w3.org/1999/02/22-rdf-syntax-ns#"
	 xmlns="http://www.w3.org/2000/svg" xmlns:xlink="http://www.w3.org/1999/xlink" x="0px" y="0px"
	 viewBox="-697.3 165.6 334.3 340.1" enable-background="new -697.3 165.6 334.3 340.1" xml:space="preserve">
<filter  id="filter63947-6" color-interpolation-filters="sRGB">
	<feGaussianBlur  id="feGaussianBlur63949-93" stdDeviation="3.6503895"></feGaussianBlur>
</filter>
<path id="path63302" fill="#96C93F" d="M-383,337c0,82-66.5,148.5-148.5,148.5S-680,419.1-680,337s66.5-148.5,148.5-148.5
	S-383,255-383,337z"/>
<radialGradient id="path63332_1_" cx="524.5411" cy="-1173.8458" r="264.2222" gradientTransform="matrix(5.917967e-002 0.4565 0.5575 -7.227397e-002 94.5149 87.7101)" gradientUnits="userSpaceOnUse">
	<stop  offset="0" style="stop-color:#00FFFF"/>
	<stop  offset="1" style="stop-color:#00FFFF;stop-opacity:0"/>
</radialGradient>
<path id="path63332" fill="url(#path63332_1_)" d="M-377,308.1c0,82-66.5,148.5-148.5,148.5s-148.5-66.5-148.5-148.5
	s66.5-148.5,148.5-148.5S-377,226.1-377,308.1z"/>
<path id="path63355" d="M-531.5,189c-82,0-148.6,66.5-148.6,148.5s66.5,148.6,148.6,148.6s148.5-66.5,148.5-148.6
	S-449.4,189-531.5,189z M-532.6,215.8c66.6,0,120.6,54,120.6,120.6s-54,120.6-120.6,120.6s-120.6-54-120.6-120.6
	S-599.2,215.8-532.6,215.8z"/>
<path id="path63348" fill="#585757" d="M-530.4,184.5c-85.1,0-154.2,69-154.2,154.1s69,154.2,154.2,154.2s154.1-69,154.1-154.2
	C-376.2,253.5-445.2,184.5-530.4,184.5z M-531.5,212.3c69.1,0,125.1,56,125.1,125.1c0,69.1-56,125.2-125.1,125.2
	c-69.1,0-125.2-56.1-125.2-125.2S-600.6,212.3-531.5,212.3L-531.5,212.3z"/>
<radialGradient id="path63885_1_" cx="-51.7076" cy="-734.1026" r="274.1657" gradientTransform="matrix(1.0007 0.8832 0.3887 -0.4405 -175.3972 9.5988)" gradientUnits="userSpaceOnUse">
	<stop  offset="0" style="stop-color:#585757"/>
	<stop  offset="1" style="stop-color:#FFFFFF"/>
</radialGradient>
<path id="path63885" fill="url(#path63885_1_)" d="M-530.4,184.5c-85.1,0-154.2,69-154.2,154.1s69,154.2,154.2,154.2
	s154.1-69,154.1-154.2C-376.2,253.5-445.2,184.5-530.4,184.5z M-531.5,212.3c69.1,0,125.1,56,125.1,125.1
	c0,69.1-56,125.2-125.1,125.2c-69.1,0-125.2-56.1-125.2-125.2S-600.6,212.3-531.5,212.3L-531.5,212.3z"/>
<path id="path63895" fill="#333333" d="M-529.7,173.4c-90.4,0-163.7,73.3-163.7,163.7s73.3,163.7,163.7,163.7S-366,427.4-366,337
	S-439.3,173.4-529.7,173.4L-529.7,173.4z M-530.9,202.9c73.4,0,132.9,59.5,132.9,132.9s-59.5,132.9-132.9,132.9
	s-132.9-59.5-132.9-132.9C-663.8,262.4-604.3,202.9-530.9,202.9L-530.9,202.9z"/>
<linearGradient id="path63922_1_" gradientUnits="userSpaceOnUse" x1="-1071.9344" y1="374.2732" x2="-1136.5536" y2="-297.203" gradientTransform="matrix(0.5328 0 0 -0.5283 72.278 207.3047)">
	<stop  offset="0" style="stop-color:#E6E6E6"/>
	<stop  offset="1" style="stop-color:#E6E6E6;stop-opacity:0"/>
</linearGradient>
<path id="path63922" fill="url(#path63922_1_)" d="M-530,223.4c-40.1,0-75.4,21.1-95.6,53c17.4,41.3,57.7,70.2,104.6,70.2
	c40.1,0,75.3-21.1,95.6-53C-442.9,252.3-483.1,223.4-530,223.4L-530,223.4z"/>
<g id="path63937" filter="url(#filter63947-6)">
	<ellipse fill="none" stroke="#000000" stroke-width="2.743" cx="-531.1" cy="338.7" rx="123.2" ry="126.4"/>
</g>
<g id="path63951" filter="url(#filter63947-6)">
	<ellipse fill="none" stroke="#000000" stroke-width="2.743" cx="-531.1" cy="338.7" rx="123.2" ry="126.4"/>
</g>
<g id="path63953" filter="url(#filter63947-6)">
	<ellipse fill="none" stroke="#000000" stroke-width="2.743" cx="-531.1" cy="338.7" rx="123.2" ry="126.4"/>
</g>
<linearGradient id="path63907_1_" gradientUnits="userSpaceOnUse" x1="-1411.4965" y1="-367.6216" x2="-737.2107" y2="-89.4787" gradientTransform="matrix(0.5622 0 0 -0.5622 66.8078 211.6441)">
	<stop  offset="0" style="stop-color:#E6E6E6"/>
	<stop  offset="1" style="stop-color:#E6E6E6;stop-opacity:0"/>
</linearGradient>
<path id="path63907" fill="url(#path63907_1_)" d="M-529.7,173.4c-90.4,0-163.7,73.3-163.7,163.7s73.3,163.7,163.7,163.7
	S-366,427.4-366,337S-439.3,173.4-529.7,173.4L-529.7,173.4z M-530.9,202.9c73.4,0,132.9,59.5,132.9,132.9s-59.5,132.9-132.9,132.9
	s-132.9-59.5-132.9-132.9C-663.8,262.4-604.3,202.9-530.9,202.9L-530.9,202.9z"/>
<linearGradient id="path63997_1_" gradientUnits="userSpaceOnUse" x1="-1071.9344" y1="374.2732" x2="-1136.5536" y2="-297.203" gradientTransform="matrix(0.5328 0 0 -0.5283 72.278 207.3047)">
	<stop  offset="0" style="stop-color:#E6E6E6"/>
	<stop  offset="1" style="stop-color:#E6E6E6;stop-opacity:0"/>
</linearGradient>
<path id="path63997" fill="url(#path63997_1_)" d="M-530,223.4c-40.1,0-75.4,21.1-95.6,53c17.4,41.3,57.7,70.2,104.6,70.2
	c40.1,0,75.3-21.1,95.6-53C-442.9,252.3-483.1,223.4-530,223.4L-530,223.4z"/>
<path id="path63999" fill="none" d="M-530,223.4c-40.1,0-75.4,21.1-95.6,53c17.4,41.3,57.7,70.2,104.6,70.2
	c40.1,0,75.3-21.1,95.6-53C-442.9,252.3-483.1,223.4-530,223.4L-530,223.4z"/>
<g id="g5538" transform="matrix(1.6816261,0,0,1.6816261,-2009.8735,-387.49994)">
	<path id="path64233" d="M1764.1,605.7c0,27.6-22.4,50-50,50c-27.6,0-50-22.4-50-50s22.4-50,50-50
		C1741.7,555.7,1764.1,578.1,1764.1,605.7L1764.1,605.7z"/>
	
		<linearGradient id="path63969_1_" gradientUnits="userSpaceOnUse" x1="2509.446" y1="191.8704" x2="2472.8584" y2="-188.3218" gradientTransform="matrix(0.4655 0 0 -0.5012 554.7194 590.7823)">
		<stop  offset="0" style="stop-color:#E6E6E6"/>
		<stop  offset="1" style="stop-color:#E6E6E6;stop-opacity:0"/>
	</linearGradient>
	<path id="path63969" fill="url(#path63969_1_)" d="M1713.7,562.9c-11.8,0-22.2,6.8-28.1,16.9c5.1,13.2,17,22.4,30.8,22.4
		c11.8,0,22.2-6.7,28.1-16.9C1739.4,572.2,1727.5,562.9,1713.7,562.9L1713.7,562.9z"/>
	
		<linearGradient id="path63993_1_" gradientUnits="userSpaceOnUse" x1="2509.446" y1="191.8704" x2="2472.8584" y2="-188.3218" gradientTransform="matrix(0.4655 0 0 -0.5012 554.7194 590.7823)">
		<stop  offset="0" style="stop-color:#E6E6E6"/>
		<stop  offset="1" style="stop-color:#E6E6E6;stop-opacity:0"/>
	</linearGradient>
	<path id="path63993" fill="url(#path63993_1_)" d="M1713.7,562.9c-11.8,0-22.2,6.8-28.1,16.9c5.1,13.2,17,22.4,30.8,22.4
		c11.8,0,22.2-6.7,28.1-16.9C1739.4,572.2,1727.5,562.9,1713.7,562.9L1713.7,562.9z"/>
	<path id="path63957" fill="#F9F9F9" fill-opacity="0" d="M1767.3,626.5c0,27.6-22.4,50-50,50s-50-22.4-50-50s22.4-50,50-50
		S1767.3,598.8,1767.3,626.5L1767.3,626.5z"/>
	
		<radialGradient id="path63959_1_" cx="1804.4465" cy="1703.6476" r="149.6035" gradientTransform="matrix(-1.863851e-003 0.2981 0.4173 2.609008e-003 1006.1689 97.7799)" gradientUnits="userSpaceOnUse">
		<stop  offset="0" style="stop-color:#E6E6E6;stop-opacity:0.66"/>
		<stop  offset="1" style="stop-color:#E6E6E6;stop-opacity:0"/>
	</radialGradient>
	<path id="path63959" fill="url(#path63959_1_)" d="M1763.4,606.3c0,27.6-22.4,50-50,50s-50-22.4-50-50c0-27.6,22.4-50,50-50
		S1763.4,578.6,1763.4,606.3L1763.4,606.3z"/>
	
		<radialGradient id="path64079_1_" cx="1618.0831" cy="1447.0341" r="149.6035" gradientTransform="matrix(-2.281056e-002 0.3878 0.5241 3.082956e-002 990.7048 -23.891)" gradientUnits="userSpaceOnUse">
		<stop  offset="0" style="stop-color:#E6E6E6;stop-opacity:0.66"/>
		<stop  offset="1" style="stop-color:#E6E6E6;stop-opacity:0"/>
	</radialGradient>
	<path id="path64079" fill="url(#path64079_1_)" d="M1763.4,606.3c0,27.6-22.4,50-50,50s-50-22.4-50-50c0-27.6,22.4-50,50-50
		S1763.4,578.6,1763.4,606.3L1763.4,606.3z"/>
	<path id="path64237" d="M1713.1,553c-27.6,0-50,22.4-50,50s22.4,50,50,50s50-22.4,50-50S1740.7,553,1713.1,553L1713.1,553z
		 M1712.7,562.1c22.4,0,40.6,18.2,40.6,40.6c0,22.4-18.2,40.6-40.6,40.6s-40.6-18.2-40.6-40.6
		C1672.1,580.3,1690.3,562.1,1712.7,562.1L1712.7,562.1z"/>
	<path id="path64239" fill="#585757" d="M1713.4,551.5c-28.7,0-51.9,23.2-51.9,51.9c0,28.7,23.2,51.9,51.9,51.9s51.9-23.2,51.9-51.9
		C1765.3,574.8,1742.1,551.5,1713.4,551.5z M1713,560.9c23.3,0,42.1,18.9,42.1,42.1c0,23.3-18.9,42.1-42.1,42.1
		c-23.3,0-42.1-18.9-42.1-42.1C1670.9,579.8,1689.8,560.9,1713,560.9L1713,560.9z"/>
	
		<radialGradient id="path64241_1_" cx="1734.2905" cy="807.1342" r="155.2336" gradientTransform="matrix(1.0007 0.8832 0.3887 -0.4405 -329.8698 -590.0234)" gradientUnits="userSpaceOnUse">
		<stop  offset="0" style="stop-color:#585757"/>
		<stop  offset="1" style="stop-color:#FFFFFF"/>
	</radialGradient>
	<path id="path64241" fill="url(#path64241_1_)" d="M1713.4,551.5c-28.7,0-51.9,23.2-51.9,51.9c0,28.7,23.2,51.9,51.9,51.9
		s51.9-23.2,51.9-51.9C1765.3,574.8,1742.1,551.5,1713.4,551.5z M1713,560.9c23.3,0,42.1,18.9,42.1,42.1c0,23.3-18.9,42.1-42.1,42.1
		c-23.3,0-42.1-18.9-42.1-42.1C1670.9,579.8,1689.8,560.9,1713,560.9L1713,560.9z"/>
	<path id="path64243" fill="#333333" d="M1713.7,547.8c-30.4,0-55.1,24.7-55.1,55.1c0,30.4,24.7,55.1,55.1,55.1
		c30.4,0,55.1-24.7,55.1-55.1C1768.8,572.5,1744.1,547.8,1713.7,547.8L1713.7,547.8z M1713.3,557.7c24.7,0,44.7,20,44.7,44.7
		c0,24.7-20,44.8-44.7,44.8s-44.8-20-44.8-44.8C1668.5,577.8,1688.6,557.7,1713.3,557.7z"/>
	<g id="path64245" filter="url(#filter63947-6)">
		<ellipse fill="none" stroke="#000000" stroke-width="2.743" cx="1713.2" cy="603.5" rx="69.8" ry="71.5"/>
	</g>
	<g id="path64247" filter="url(#filter63947-6)">
		<ellipse fill="none" stroke="#000000" stroke-width="2.743" cx="1713.2" cy="603.5" rx="69.8" ry="71.5"/>
	</g>
	<g id="path64249" filter="url(#filter63947-6)">
		<ellipse fill="none" stroke="#000000" stroke-width="2.743" cx="1713.2" cy="603.5" rx="69.8" ry="71.5"/>
	</g>
	
		<linearGradient id="path64251_1_" gradientUnits="userSpaceOnUse" x1="2169.0449" y1="-29.381" x2="2550.8279" y2="128.1044" gradientTransform="matrix(0.5622 0 0 -0.5622 427.8656 613.7447)">
		<stop  offset="0" style="stop-color:#E6E6E6"/>
		<stop  offset="1" style="stop-color:#E6E6E6;stop-opacity:0"/>
	</linearGradient>
	<path id="path64251" fill="url(#path64251_1_)" d="M1713.7,547.8c-30.4,0-55.1,24.7-55.1,55.1c0,30.4,24.7,55.1,55.1,55.1
		c30.4,0,55.1-24.7,55.1-55.1C1768.8,572.5,1744.1,547.8,1713.7,547.8L1713.7,547.8z M1713.3,557.7c24.7,0,44.7,20,44.7,44.7
		c0,24.7-20,44.8-44.7,44.8s-44.8-20-44.8-44.8C1668.5,577.8,1688.6,557.7,1713.3,557.7z"/>
</g>
<g id="g5408" transform="matrix(1.6816261,0,0,1.6816261,-2250.38,232.81424)">
	<path id="path65117" fill="#FF00FF" d="M2041.7,238.3c0,27.6-22.4,50-50,50s-50-22.4-50-50c0-27.6,22.4-50,50-50
		S2041.7,210.7,2041.7,238.3z"/>
	
		<linearGradient id="path64997_1_" gradientUnits="userSpaceOnUse" x1="2652.4661" y1="-177.0073" x2="2615.8787" y2="-557.1994" gradientTransform="matrix(0.4655 0 0 -0.5012 766.216 40.6071)">
		<stop  offset="0" style="stop-color:#E6E6E6"/>
		<stop  offset="1" style="stop-color:#E6E6E6;stop-opacity:0"/>
	</linearGradient>
	<path id="path64997" fill="url(#path64997_1_)" d="M1991.8,197.6c-11.8,0-22.2,6.8-28.1,16.9c5.1,13.2,17,22.4,30.8,22.4
		c11.8,0,22.2-6.7,28.1-16.9C2017.5,206.9,2005.6,197.6,1991.8,197.6L1991.8,197.6z"/>
	
		<linearGradient id="path64999_1_" gradientUnits="userSpaceOnUse" x1="2652.4661" y1="-177.0073" x2="2615.8787" y2="-557.1994" gradientTransform="matrix(0.4655 0 0 -0.5012 766.216 40.6071)">
		<stop  offset="0" style="stop-color:#E6E6E6"/>
		<stop  offset="1" style="stop-color:#E6E6E6;stop-opacity:0"/>
	</linearGradient>
	<path id="path64999" fill="url(#path64999_1_)" d="M1991.8,197.6c-11.8,0-22.2,6.8-28.1,16.9c5.1,13.2,17,22.4,30.8,22.4
		c11.8,0,22.2-6.7,28.1-16.9C2017.5,206.9,2005.6,197.6,1991.8,197.6L1991.8,197.6z"/>
	<path id="path65003" fill="#F9F9F9" fill-opacity="0" d="M2045.4,261.2c0,27.6-22.4,50-50,50s-50-22.4-50-50s22.4-50,50-50
		S2045.4,233.6,2045.4,261.2z"/>
	
		<radialGradient id="path65005_1_" cx="1947.4667" cy="1334.7699" r="149.6035" gradientTransform="matrix(-1.863851e-003 0.2981 0.4173 2.609008e-003 1438.442 -309.1718)" gradientUnits="userSpaceOnUse">
		<stop  offset="0" style="stop-color:#E6E6E6;stop-opacity:0.66"/>
		<stop  offset="1" style="stop-color:#E6E6E6;stop-opacity:0"/>
	</radialGradient>
	<path id="path65005" fill="url(#path65005_1_)" d="M2041.5,241c0,27.6-22.4,50-50,50c-27.6,0-50-22.4-50-50s22.4-50,50-50
		C2019.1,191,2041.5,213.4,2041.5,241L2041.5,241z"/>
	
		<radialGradient id="path65007_1_" cx="1761.1033" cy="1078.1565" r="149.6035" gradientTransform="matrix(-2.281056e-002 0.3878 0.5241 3.082956e-002 1465.3585 -433.2526)" gradientUnits="userSpaceOnUse">
		<stop  offset="0" style="stop-color:#E6E6E6;stop-opacity:0.66"/>
		<stop  offset="1" style="stop-color:#E6E6E6;stop-opacity:0"/>
	</radialGradient>
	<path id="path65007" fill="url(#path65007_1_)" d="M2041.5,241c0,27.6-22.4,50-50,50c-27.6,0-50-22.4-50-50s22.4-50,50-50
		C2019.1,191,2041.5,213.4,2041.5,241L2041.5,241z"/>
	<path id="path65011" d="M1989.5,187.2c-27.6,0-50,22.4-50,50s22.4,50,50,50s50-22.4,50-50S2017.2,187.2,1989.5,187.2L1989.5,187.2z
		 M1989.2,196.3c22.4,0,40.6,18.2,40.6,40.6s-18.2,40.6-40.6,40.6s-40.6-18.2-40.6-40.6S1966.7,196.3,1989.2,196.3L1989.2,196.3z"/>
	<path id="path65013" fill="#585757" d="M1989.9,185.7c-28.7,0-51.9,23.2-51.9,51.9s23.2,51.9,51.9,51.9c28.7,0,51.9-23.2,51.9-51.9
		S2018.6,185.7,1989.9,185.7z M1989.5,195.1c23.3,0,42.1,18.9,42.1,42.1c0,23.3-18.9,42.1-42.1,42.1c-23.3,0-42.1-18.9-42.1-42.1
		S1966.3,195.1,1989.5,195.1L1989.5,195.1z"/>
	
		<radialGradient id="path65015_1_" cx="1877.3107" cy="438.2565" r="155.2336" gradientTransform="matrix(1.0007 0.8832 0.3887 -0.4405 -53.1244 -1244.623)" gradientUnits="userSpaceOnUse">
		<stop  offset="0" style="stop-color:#585757"/>
		<stop  offset="1" style="stop-color:#FFFFFF"/>
	</radialGradient>
	<path id="path65015" fill="url(#path65015_1_)" d="M1989.9,185.7c-28.7,0-51.9,23.2-51.9,51.9s23.2,51.9,51.9,51.9
		c28.7,0,51.9-23.2,51.9-51.9S2018.6,185.7,1989.9,185.7z M1989.5,195.1c23.3,0,42.1,18.9,42.1,42.1c0,23.3-18.9,42.1-42.1,42.1
		c-23.3,0-42.1-18.9-42.1-42.1S1966.3,195.1,1989.5,195.1L1989.5,195.1z"/>
	<path id="path65017" fill="#333333" d="M1990.2,182c-30.4,0-55.1,24.7-55.1,55.1s24.7,55.1,55.1,55.1s55.1-24.7,55.1-55.1
		S2020.6,182,1990.2,182z M1989.7,191.9c24.7,0,44.7,20,44.7,44.7s-20,44.8-44.7,44.8s-44.8-20-44.8-44.8S1965,191.9,1989.7,191.9z"
		/>
	<g id="path65019" filter="url(#filter63947-6)">
		<ellipse fill="none" stroke="#000000" stroke-width="2.743" cx="1989.7" cy="237.7" rx="69.8" ry="71.5"/>
	</g>
	<g id="path65021" filter="url(#filter63947-6)">
		<ellipse fill="none" stroke="#000000" stroke-width="2.743" cx="1989.7" cy="237.7" rx="69.8" ry="71.5"/>
	</g>
	<g id="path65023" filter="url(#filter63947-6)">
		<ellipse fill="none" stroke="#000000" stroke-width="2.743" cx="1989.7" cy="237.7" rx="69.8" ry="71.5"/>
	</g>
	
		<linearGradient id="path65025_1_" gradientUnits="userSpaceOnUse" x1="2312.0649" y1="-398.2586" x2="2693.8479" y2="-240.7731" gradientTransform="matrix(0.5622 0 0 -0.5622 623.9389 40.5497)">
		<stop  offset="0" style="stop-color:#E6E6E6"/>
		<stop  offset="1" style="stop-color:#E6E6E6;stop-opacity:0"/>
	</linearGradient>
	<path id="path65025" fill="url(#path65025_1_)" d="M1990.2,182c-30.4,0-55.1,24.7-55.1,55.1s24.7,55.1,55.1,55.1
		s55.1-24.7,55.1-55.1S2020.6,182,1990.2,182z M1989.7,191.9c24.7,0,44.7,20,44.7,44.7s-20,44.8-44.7,44.8s-44.8-20-44.8-44.8
		S1965,191.9,1989.7,191.9z"/>
</g>
<g id="g5376" transform="matrix(1.6816261,0,0,1.6816261,-2001.0637,-36.78308)">
	<path id="path65494" fill="#800033" d="M1760.3,261.8c0,27.6-22.4,50-50,50c-27.6,0-50-22.4-50-50s22.4-50,50-50
		C1737.9,211.8,1760.3,234.2,1760.3,261.8L1760.3,261.8z"/>
	
		<linearGradient id="path64815_1_" gradientUnits="userSpaceOnUse" x1="2504.207" y1="-16.6878" x2="2467.6196" y2="-396.88" gradientTransform="matrix(0.4655 0 0 -0.5012 553.3831 147.6772)">
		<stop  offset="0" style="stop-color:#E6E6E6"/>
		<stop  offset="1" style="stop-color:#E6E6E6;stop-opacity:0"/>
	</linearGradient>
	<path id="path64815" fill="url(#path64815_1_)" d="M1710,224.4c-11.8,0-22.2,6.8-28.1,16.9c5.1,13.2,17,22.4,30.8,22.4
		c11.8,0,22.2-6.7,28.1-16.9C1735.6,233.6,1723.8,224.4,1710,224.4z"/>
	
		<linearGradient id="path64817_1_" gradientUnits="userSpaceOnUse" x1="2504.207" y1="-16.6878" x2="2467.6196" y2="-396.88" gradientTransform="matrix(0.4655 0 0 -0.5012 553.3831 147.6772)">
		<stop  offset="0" style="stop-color:#E6E6E6"/>
		<stop  offset="1" style="stop-color:#E6E6E6;stop-opacity:0"/>
	</linearGradient>
	<path id="path64817" fill="url(#path64817_1_)" d="M1710,224.4c-11.8,0-22.2,6.8-28.1,16.9c5.1,13.2,17,22.4,30.8,22.4
		c11.8,0,22.2-6.7,28.1-16.9C1735.6,233.6,1723.8,224.4,1710,224.4z"/>
	<path id="path64821" fill="#F9F9F9" fill-opacity="0" d="M1763.6,287.9c0,27.6-22.4,50-50,50s-50-22.4-50-50c0-27.6,22.4-50,50-50
		S1763.6,260.3,1763.6,287.9z"/>
	
		<radialGradient id="path64823_1_" cx="1799.2076" cy="1495.0894" r="149.6035" gradientTransform="matrix(-1.863851e-003 0.2981 0.4173 2.609008e-003 1089.4144 -238.6807)" gradientUnits="userSpaceOnUse">
		<stop  offset="0" style="stop-color:#E6E6E6;stop-opacity:0.66"/>
		<stop  offset="1" style="stop-color:#E6E6E6;stop-opacity:0"/>
	</radialGradient>
	<path id="path64823" fill="url(#path64823_1_)" d="M1759.6,267.7c0,27.6-22.4,50-50,50s-50-22.4-50-50s22.4-50,50-50
		S1759.6,240.1,1759.6,267.7z"/>
	
		<radialGradient id="path64825_1_" cx="1612.8442" cy="1238.476" r="149.6035" gradientTransform="matrix(-2.281056e-002 0.3878 0.5241 3.082956e-002 1096.1082 -353.9964)" gradientUnits="userSpaceOnUse">
		<stop  offset="0" style="stop-color:#E6E6E6;stop-opacity:0.66"/>
		<stop  offset="1" style="stop-color:#E6E6E6;stop-opacity:0"/>
	</radialGradient>
	<path id="path64825" fill="url(#path64825_1_)" d="M1759.6,267.7c0,27.6-22.4,50-50,50s-50-22.4-50-50s22.4-50,50-50
		S1759.6,240.1,1759.6,267.7z"/>
	<path id="path64829" d="M1707.7,213.9c-27.6,0-50,22.4-50,50s22.4,50,50,50s50-22.4,50-50C1757.7,236.3,1735.3,213.9,1707.7,213.9
		L1707.7,213.9z M1707.3,223c22.4,0,40.6,18.2,40.6,40.6s-18.2,40.6-40.6,40.6c-22.4,0-40.6-18.2-40.6-40.6S1684.9,223,1707.3,223
		L1707.3,223z"/>
	<path id="path64831" fill="#585757" d="M1708.1,212.4c-28.7,0-51.9,23.2-51.9,51.9s23.2,51.9,51.9,51.9s51.9-23.2,51.9-51.9
		C1760,235.7,1736.7,212.4,1708.1,212.4L1708.1,212.4z M1707.7,221.8c23.3,0,42.1,18.9,42.1,42.1s-18.9,42.1-42.1,42.1
		c-23.3,0-42.1-18.9-42.1-42.1S1684.4,221.8,1707.7,221.8z"/>
	
		<radialGradient id="path64833_1_" cx="1729.0516" cy="598.576" r="155.2336" gradientTransform="matrix(1.0007 0.8832 0.3887 -0.4405 -248.9263 -1016.358)" gradientUnits="userSpaceOnUse">
		<stop  offset="0" style="stop-color:#585757"/>
		<stop  offset="1" style="stop-color:#FFFFFF"/>
	</radialGradient>
	<path id="path64833" fill="url(#path64833_1_)" d="M1708.1,212.4c-28.7,0-51.9,23.2-51.9,51.9s23.2,51.9,51.9,51.9
		s51.9-23.2,51.9-51.9C1760,235.7,1736.7,212.4,1708.1,212.4L1708.1,212.4z M1707.7,221.8c23.3,0,42.1,18.9,42.1,42.1
		s-18.9,42.1-42.1,42.1c-23.3,0-42.1-18.9-42.1-42.1S1684.4,221.8,1707.7,221.8z"/>
	<path id="path64835" fill="#333333" d="M1708.3,208.7c-30.4,0-55.1,24.7-55.1,55.1s24.7,55.1,55.1,55.1s55.1-24.7,55.1-55.1
		S1738.7,208.7,1708.3,208.7L1708.3,208.7z M1707.9,218.6c24.7,0,44.7,20,44.7,44.7s-20,44.8-44.7,44.8c-24.7,0-44.8-20-44.8-44.8
		S1683.2,218.6,1707.9,218.6z"/>
	<g id="path64837" filter="url(#filter63947-6)">
		<ellipse fill="none" stroke="#000000" stroke-width="2.743" cx="1707.8" cy="264.4" rx="69.8" ry="71.5"/>
	</g>
	<g id="path64839" filter="url(#filter63947-6)">
		<ellipse fill="none" stroke="#000000" stroke-width="2.743" cx="1707.8" cy="264.4" rx="69.8" ry="71.5"/>
	</g>
	<g id="path64841" filter="url(#filter63947-6)">
		<ellipse fill="none" stroke="#000000" stroke-width="2.743" cx="1707.8" cy="264.4" rx="69.8" ry="71.5"/>
	</g>
	
		<linearGradient id="path64843_1_" gradientUnits="userSpaceOnUse" x1="2163.8062" y1="-237.9392" x2="2545.5889" y2="-80.4537" gradientTransform="matrix(0.5622 0 0 -0.5622 425.4405 157.3934)">
		<stop  offset="0" style="stop-color:#E6E6E6"/>
		<stop  offset="1" style="stop-color:#E6E6E6;stop-opacity:0"/>
	</linearGradient>
	<path id="path64843" fill="url(#path64843_1_)" d="M1708.3,208.7c-30.4,0-55.1,24.7-55.1,55.1s24.7,55.1,55.1,55.1
		s55.1-24.7,55.1-55.1S1738.7,208.7,1708.3,208.7L1708.3,208.7z M1707.9,218.6c24.7,0,44.7,20,44.7,44.7s-20,44.8-44.7,44.8
		c-24.7,0-44.8-20-44.8-44.8S1683.2,218.6,1707.9,218.6z"/>
</g>
<text transform="matrix(1 0 0 1 -623.1981 359.3196)" fill="#D6562B" font-family="'Verdana'" font-size="55.0465">START</text>
<rect x="-274.5" y="236.9" fill="#AA962E" width="191" height="186.3"/>
<rect x="-274.5" y="223.6" fill="none" stroke="#00753B" stroke-width="7" stroke-miterlimit="10" width="205" height="202"/>
<rect x="-288.5" y="236.9" fill="none" stroke="#ED7C31" stroke-width="7" stroke-miterlimit="10" width="205" height="202"/>
<g>
	<text transform="matrix(1 0 0 1 -246.3935 352.1056)" fill="#F9F7F7" font-family="'Verdana'" font-size="71.6249">MIX</text>
</g>
<linearGradient id="SVGID_1_" gradientUnits="userSpaceOnUse" x1="121.0056" y1="219.3129" x2="121.0056" y2="437.1685" gradientTransform="matrix(-1 0 0 1 287.3975 0)">
	<stop  offset="0" style="stop-color:#FFFFFF"/>
	<stop  offset="0.4057" style="stop-color:#FFFEFD"/>
	<stop  offset="0.5518" style="stop-color:#FFFCF6"/>
	<stop  offset="0.656" style="stop-color:#FFF8EB"/>
	<stop  offset="0.7403" style="stop-color:#FFF2DA"/>
	<stop  offset="0.8125" style="stop-color:#FFEBC4"/>
	<stop  offset="0.8764" style="stop-color:#FFE2A8"/>
	<stop  offset="0.9342" style="stop-color:#FFD788"/>
	<stop  offset="0.9856" style="stop-color:#FFCB64"/>
	<stop  offset="1" style="stop-color:#FFC758"/>
</linearGradient>
<path fill="url(#SVGID_1_)" stroke="#8FCCA3" stroke-width="7" stroke-miterlimit="10" d="M57.5,328.2
	c3.3,101.7,98.6,108.9,108.9,108.9c60.2,0,108.9-48.8,108.9-108.9c0-60.2-48.8-108.9-108.9-108.9C106.3,219.3,55.5,268.1,57.5,328.2
	z"/>
<linearGradient id="SVGID_2_" gradientUnits="userSpaceOnUse" x1="120.9781" y1="219.3129" x2="120.9781" y2="437.1685" gradientTransform="matrix(-1 0 0 1 287.3975 0)">
	<stop  offset="0" style="stop-color:#FFFFFF"/>
	<stop  offset="0.146" style="stop-color:#FDE5C9"/>
	<stop  offset="0.3047" style="stop-color:#FBCC95"/>
	<stop  offset="0.4611" style="stop-color:#F9B76A"/>
	<stop  offset="0.6117" style="stop-color:#F8A749"/>
	<stop  offset="0.7548" style="stop-color:#F79B31"/>
	<stop  offset="0.8877" style="stop-color:#F69423"/>
	<stop  offset="1" style="stop-color:#F6921E"/>
</linearGradient>
<path fill="url(#SVGID_2_)" stroke="#3B9E5C" stroke-width="7" stroke-miterlimit="10" d="M57.5,328.2c0,14.1,2.7,27.6,7.6,40
	c63.9-20.1,38.9,55.6,71.6,64.8c9.4,2.7,19.4,4.1,29.7,4.1c60.2,0,108.9-48.8,108.9-108.9c0-60.2-48.8-108.9-108.9-108.9
	C106.3,219.3,57.5,268.1,57.5,328.2z"/>
<path fill="#FFFFFF" d="M166.1,224c57.5,0,104.2,46.7,104.3,104.2c-39.9,9.2-80.1,5.2-119.6-13.5c-26.9-12.7-54-22.5-81-26.4
	C85.5,250.6,122.7,224,166.1,224z"/>
<path opacity="0.14" fill="none" d="M166.1,224c57.5,0,104.2,46.7,104.3,104.2c-39.9,9.2-80.1,5.2-119.6-13.5
	c-26.9-12.7-54-22.5-81-26.4C85.5,250.6,122.7,224,166.1,224z"/>
<g>
	
		<linearGradient id="SVGID_3_" gradientUnits="userSpaceOnUse" x1="253.0535" y1="-8.6524" x2="253.0535" y2="117.1337" gradientTransform="matrix(1 0 0 1 -0.6553 0)">
		<stop  offset="0" style="stop-color:#FFFFFF"/>
		<stop  offset="0.3766" style="stop-color:#FDFEFE"/>
		<stop  offset="0.5122" style="stop-color:#F6FCF9"/>
		<stop  offset="0.6089" style="stop-color:#EBF8F0"/>
		<stop  offset="0.6872" style="stop-color:#DAF3E3"/>
		<stop  offset="0.7542" style="stop-color:#C4ECD3"/>
		<stop  offset="0.8135" style="stop-color:#A8E3BF"/>
		<stop  offset="0.8672" style="stop-color:#88D8A6"/>
		<stop  offset="0.9165" style="stop-color:#62CC8A"/>
		<stop  offset="0.9604" style="stop-color:#39BE6C"/>
		<stop  offset="1" style="stop-color:#0DB04B"/>
	</linearGradient>
	<path fill="url(#SVGID_3_)" d="M315.3,54.2c-1.9,58.7-56.9,62.9-62.9,62.9c-34.7,0-62.9-28.2-62.9-62.9c0-34.7,28.2-62.9,62.9-62.9
		C287.1-8.7,316.4,19.5,315.3,54.2z"/>
	
		<linearGradient id="SVGID_4_" gradientUnits="userSpaceOnUse" x1="253.0376" y1="-8.6524" x2="253.0376" y2="117.1337" gradientTransform="matrix(1 0 0 1 -0.6553 0)">
		<stop  offset="0" style="stop-color:#FFFFFF"/>
		<stop  offset="2.252007e-002" style="stop-color:#F6FCF8"/>
		<stop  offset="0.1782" style="stop-color:#B9E8CB"/>
		<stop  offset="0.333" style="stop-color:#84D7A4"/>
		<stop  offset="0.483" style="stop-color:#59C984"/>
		<stop  offset="0.6275" style="stop-color:#38BE6B"/>
		<stop  offset="0.7648" style="stop-color:#20B659"/>
		<stop  offset="0.8923" style="stop-color:#12B24F"/>
		<stop  offset="1" style="stop-color:#0DB04B"/>
	</linearGradient>
	<path fill="url(#SVGID_4_)" d="M315.3,54.2c0,8.2-1.6,15.9-4.4,23.1c-36.9-11.6-22.4,32.1-41.4,37.4c-5.5,1.5-11.2,2.4-17.2,2.4
		c-34.7,0-62.9-28.2-62.9-62.9c0-34.7,28.2-62.9,62.9-62.9C287.1-8.7,315.3,19.5,315.3,54.2z"/>
	<path fill="#FFFFFF" d="M252.6-6c-33.2,0-60.2,27-60.2,60.2c23,5.3,46.3,3,69.1-7.8c15.5-7.3,31.2-13,46.8-15.2
		C299.1,9.4,277.6-6,252.6-6z"/>
	<path opacity="0.14" fill="none" d="M252.6-6c-33.2,0-60.2,27-60.2,60.2c23,5.3,46.3,3,69.1-7.8c15.5-7.3,31.2-13,46.8-15.2
		C299.1,9.4,277.6-6,252.6-6z"/>
</g>
<linearGradient id="SVGID_5_" gradientUnits="userSpaceOnUse" x1="-223.7656" y1="227.0637" x2="-223.7656" y2="451.6266" gradientTransform="matrix(-1 0 0 1 287.3975 0)">
	<stop  offset="0" style="stop-color:#FFFFFF"/>
	<stop  offset="2.252007e-002" style="stop-color:#F6FCF8"/>
	<stop  offset="0.1782" style="stop-color:#B9E8CB"/>
	<stop  offset="0.333" style="stop-color:#84D7A4"/>
	<stop  offset="0.483" style="stop-color:#59C984"/>
	<stop  offset="0.6275" style="stop-color:#38BE6B"/>
	<stop  offset="0.7648" style="stop-color:#20B659"/>
	<stop  offset="0.8923" style="stop-color:#12B24F"/>
	<stop  offset="1" style="stop-color:#0DB04B"/>
</linearGradient>
<path fill="url(#SVGID_5_)" stroke="#F9A106" stroke-width="5.554" d="M409.1,411.5c0,10.8,8.8,19.6,19.6,19.6h164.9
	c10.8,0,19.6-8.8,19.6-19.6V246.7c0-10.8-8.8-19.6-19.6-19.6H428.7c-10.8,0-19.6,8.8-19.6,19.6V411.5z"/>
<linearGradient id="SVGID_6_" gradientUnits="userSpaceOnUse" x1="-223.7664" y1="431.109" x2="-223.7664" y2="206.5517" gradientTransform="matrix(-1 0 0 1 287.3975 0)">
	<stop  offset="0" style="stop-color:#FFFFFF"/>
	<stop  offset="0.2526" style="stop-color:#FDFEFD"/>
	<stop  offset="0.3919" style="stop-color:#F5FCF7"/>
	<stop  offset="0.5036" style="stop-color:#E7F7ED"/>
	<stop  offset="0.6007" style="stop-color:#D3F1DF"/>
	<stop  offset="0.6884" style="stop-color:#BAE8CC"/>
	<stop  offset="0.7692" style="stop-color:#9BDEB4"/>
	<stop  offset="0.8448" style="stop-color:#76D299"/>
	<stop  offset="0.9162" style="stop-color:#4BC479"/>
	<stop  offset="0.982" style="stop-color:#1BB556"/>
	<stop  offset="1" style="stop-color:#0DB04B"/>
</linearGradient>
<path opacity="0.2" fill="url(#SVGID_6_)" d="M428.7,233.6h164.9c7.2,0,13.1,5.9,13.1,13.1l0,56c-17.9,2.9-35.8,8.1-53.4,14.5
	c-31.9,11.7-62.8,26.2-94.9,33.4c-14,3.1-28.3,4.6-42.7,4.5V246.7C415.7,239.5,421.5,233.6,428.7,233.6z"/>
<g opacity="0.2">
	
		<rect x="572.7" y="415.5" transform="matrix(0.707 -0.7072 0.7072 0.707 -118.8177 544.1393)" fill="#896530" width="49.4" height="0"/>
	
		<rect x="586.8" y="421.3" transform="matrix(0.7071 -0.7072 0.7072 0.7071 -121.2423 549.9665)" fill="#896530" width="32.8" height="0"/>
	
		<rect x="543.1" y="403.2" transform="matrix(0.7071 -0.7071 0.7071 0.7071 -113.7539 531.8566)" fill="#896530" width="84" height="0"/>
	
		<rect x="557.2" y="409.1" transform="matrix(0.7071 -0.7071 0.7071 0.7071 -116.1812 537.6696)" fill="#896530" width="67.5" height="0"/>
	
		<rect x="513.5" y="391" transform="matrix(0.7071 -0.7071 0.7071 0.7071 -108.6858 519.5981)" fill="#896530" width="118.6" height="0"/>
	
		<rect x="527.6" y="396.8" transform="matrix(0.7071 -0.7071 0.7071 0.7071 -111.1118 525.4184)" fill="#896530" width="102.1" height="0"/>
	
		<rect x="498.1" y="384.6" transform="matrix(0.7071 -0.7071 0.7071 0.7071 -106.0382 513.1832)" fill="#896530" width="136.7" height="0"/>
	
		<rect x="484" y="378.7" transform="matrix(0.7071 -0.7071 0.7071 0.7071 -103.6153 507.3522)" fill="#896530" width="153.3" height="0"/>
	
		<rect x="454.4" y="366.5" transform="matrix(0.7071 -0.7071 0.7071 0.7071 -98.5446 495.1074)" fill="#896530" width="187.9" height="0"/>
	
		<rect x="468.5" y="372.3" transform="matrix(0.7071 -0.7071 0.7071 0.7071 -100.9648 500.9514)" fill="#896530" width="171.4" height="0"/>
	
		<rect x="424.9" y="354.3" transform="matrix(0.7071 -0.7071 0.7071 0.7071 -93.4731 482.8617)" fill="#896530" width="222.5" height="0"/>
	
		<rect x="439" y="360.1" transform="matrix(0.7071 -0.7071 0.7071 0.7071 -95.895 488.7027)" fill="#896530" width="206" height="0"/>
	
		<rect x="409.4" y="347.9" transform="matrix(0.7071 -0.7071 0.7071 0.7071 -90.8258 476.4521)" fill="#896530" width="240.6" height="0"/>
	
		<rect x="395.3" y="342" transform="matrix(0.7071 -0.7071 0.7071 0.7071 -88.4047 470.6125)" fill="#896530" width="257.1" height="0"/>
	
		<rect x="385.4" y="342.6" transform="matrix(0.7071 -0.7071 0.7071 0.7071 -92.7798 461.2969)" fill="#896530" width="250.1" height="0"/>
	
		<rect x="378.6" y="337.2" transform="matrix(0.7071 -0.7071 0.7071 0.7071 -90.7516 455.3014)" fill="#896530" width="251.2" height="0"/>
	
		<rect x="378.1" y="327.3" transform="matrix(0.7071 -0.7071 0.7071 0.7071 -88.0122 442.0874)" fill="#896530" width="223.2" height="0"/>
	
		<rect x="377.4" y="335.8" transform="matrix(0.7071 -0.7071 0.7071 0.7071 -93.137 446.8123)" fill="#896530" width="230.8" height="0"/>
	
		<rect x="383.1" y="315" transform="matrix(0.7071 -0.7071 0.7071 0.7071 -82.9416 429.8415)" fill="#896530" width="188.5" height="0"/>
	
		<rect x="381.9" y="323.8" transform="matrix(0.7071 -0.7071 0.7071 0.7071 -88.2848 434.4639)" fill="#896530" width="196.8" height="0"/>
	
		<rect x="387" y="311.6" transform="matrix(0.7071 -0.7071 0.7071 0.7071 -83.2131 422.226)" fill="#896530" width="162.2" height="0"/>
	
		<rect x="388.2" y="302.8" transform="matrix(0.7071 -0.7071 0.7071 0.7071 -77.8707 417.5931)" fill="#896530" width="153.9" height="0"/>
	
		<rect x="393.3" y="290.6" transform="matrix(0.7071 -0.7071 0.7071 0.7071 -72.7983 405.3576)" fill="#896530" width="119.3" height="0"/>
	
		<rect x="392.1" y="299.3" transform="matrix(0.7071 -0.7071 0.7071 0.7071 -78.1425 409.9815)" fill="#896530" width="127.5" height="0"/>
	
		<rect x="398.3" y="278.3" transform="matrix(0.7071 -0.7071 0.7071 0.7071 -67.7292 393.1003)" fill="#896530" width="84.7" height="0"/>
	
		<rect x="397.1" y="287.1" transform="matrix(0.7071 -0.7071 0.7071 0.7071 -73.0722 397.7357)" fill="#896530" width="92.9" height="0"/>
	
		<rect x="402.2" y="274.8" transform="matrix(0.7071 -0.7071 0.7071 0.7071 -68.0015 385.4854)" fill="#896530" width="58.3" height="0"/>
	
		<rect x="403.4" y="266.1" transform="matrix(0.7071 -0.7071 0.7071 0.7071 -62.6604 380.8486)" fill="#896530" width="50" height="0"/>
	
		<rect x="408.5" y="253.8" transform="matrix(0.7073 -0.7069 0.7069 0.7073 -57.6097 368.5177)" fill="#896530" width="15.4" height="0"/>
	
		<rect x="407.3" y="262.6" transform="matrix(0.7071 -0.7071 0.7071 0.7071 -62.9273 373.2645)" fill="#896530" width="23.7" height="0"/>
	
		<rect x="572.7" y="415.5" transform="matrix(0.707 -0.7072 0.7072 0.707 -118.8177 544.1393)" fill="#896530" width="49.4" height="0"/>
	
		<rect x="586.8" y="421.3" transform="matrix(0.7071 -0.7072 0.7072 0.7071 -121.2423 549.9665)" fill="#896530" width="32.8" height="0"/>
	
		<rect x="557.2" y="409.1" transform="matrix(0.7071 -0.7071 0.7071 0.7071 -116.1812 537.6696)" fill="#896530" width="67.5" height="0"/>
	
		<rect x="543.1" y="403.2" transform="matrix(0.7071 -0.7071 0.7071 0.7071 -113.7539 531.8566)" fill="#896530" width="84" height="0"/>
	
		<rect x="527.6" y="396.8" transform="matrix(0.7071 -0.7071 0.7071 0.7071 -111.1118 525.4184)" fill="#896530" width="102.1" height="0"/>
	
		<rect x="513.5" y="391" transform="matrix(0.7071 -0.7071 0.7071 0.7071 -108.6858 519.5981)" fill="#896530" width="118.6" height="0"/>
	
		<rect x="484" y="378.7" transform="matrix(0.7071 -0.7071 0.7071 0.7071 -103.6153 507.3522)" fill="#896530" width="153.3" height="0"/>
	
		<rect x="498.1" y="384.6" transform="matrix(0.7071 -0.7071 0.7071 0.7071 -106.0382 513.1832)" fill="#896530" width="136.7" height="0"/>
	
		<rect x="468.5" y="372.3" transform="matrix(0.7071 -0.7071 0.7071 0.7071 -100.9648 500.9514)" fill="#896530" width="171.4" height="0"/>
	
		<rect x="454.4" y="366.5" transform="matrix(0.7071 -0.7071 0.7071 0.7071 -98.5446 495.1074)" fill="#896530" width="187.9" height="0"/>
	
		<rect x="424.9" y="354.3" transform="matrix(0.7071 -0.7071 0.7071 0.7071 -93.4731 482.8617)" fill="#896530" width="222.5" height="0"/>
	
		<rect x="439" y="360.1" transform="matrix(0.7071 -0.7071 0.7071 0.7071 -95.895 488.7027)" fill="#896530" width="206" height="0"/>
	
		<rect x="395.3" y="342" transform="matrix(0.7071 -0.7071 0.7071 0.7071 -88.4047 470.6125)" fill="#896530" width="257.1" height="0"/>
	
		<rect x="409.4" y="347.9" transform="matrix(0.7071 -0.7071 0.7071 0.7071 -90.8258 476.4521)" fill="#896530" width="240.6" height="0"/>
	<polygon fill="#896530" points="612.9,240.2 612.9,240.2 598.9,254.2 422,431.1 422,431.1 	"/>
	<polygon fill="#896530" points="607.9,233.5 607.9,233.5 415.4,426 415.4,426 593,248.4 	"/>
	<polygon fill="#896530" points="588,228.9 588,228.9 410.7,406.2 410.7,406.2 568.5,248.4 	"/>
	<polygon fill="#896530" points="598.9,229.7 598.9,229.7 574.4,254.2 411.2,417.4 411.2,417.4 	"/>
	<polygon fill="#896530" points="574.4,229.7 574.4,229.7 549.9,254.2 410.7,393.4 410.7,393.4 	"/>
	<polygon fill="#896530" points="563.6,228.9 563.6,228.9 410.7,381.7 410.7,381.7 544.1,248.4 	"/>
	<polygon fill="#896530" points="539.1,228.9 539.1,228.9 410.7,357.2 410.7,357.2 519.6,248.4 	"/>
	<polygon fill="#896530" points="549.9,229.7 549.9,229.7 525.4,254.2 410.7,368.9 410.7,368.9 	"/>
	<polygon fill="#896530" points="514.6,228.9 514.6,228.9 410.7,332.7 410.7,332.7 495.1,248.4 	"/>
	<polygon fill="#896530" points="525.4,229.7 525.4,229.7 500.9,254.2 410.7,344.4 410.7,344.4 	"/>
	<polygon fill="#896530" points="490.1,228.9 490.1,228.9 410.7,308.2 410.7,308.2 470.6,248.4 	"/>
	<polygon fill="#896530" points="500.9,229.7 500.9,229.7 476.4,254.2 410.7,319.9 410.7,319.9 	"/>
	<polygon fill="#896530" points="476.4,229.7 476.4,229.7 452,254.2 410.7,295.4 410.7,295.4 	"/>
	<polygon fill="#896530" points="465.6,228.9 465.6,228.9 410.7,283.8 410.7,283.8 446.1,248.4 	"/>
	<polygon fill="#896530" points="441.1,228.9 441.1,228.9 410.7,259.3 410.7,259.3 421.6,248.4 	"/>
	<polygon fill="#896530" points="452,229.7 452,229.7 427.5,254.2 410.7,271 410.7,271 	"/>
	<rect x="419.2" y="226.3" fill="#896530" width="0" height="23.5"/>
	<polygon fill="#896530" points="614.8,398 587.1,425.7 592.9,431.6 614.8,409.7 614.8,409.7 591.6,432.9 579.9,432.9 614.8,398 	
		"/>
	<polygon fill="#896530" points="614.8,373.5 562.6,425.7 568.4,431.6 614.8,385.2 614.8,385.2 567.1,432.9 555.4,432.9 
		614.8,373.5 	"/>
	<polygon fill="#896530" points="614.8,349 538.1,425.7 543.9,431.6 614.8,360.7 614.8,360.7 542.6,432.9 530.9,432.9 614.8,349 	
		"/>
	<polygon fill="#896530" points="614.8,324.6 513.6,425.7 519.4,431.6 614.8,336.3 614.8,336.3 518.1,432.9 506.4,432.9 
		614.8,324.6 	"/>
	<polygon fill="#896530" points="614.8,300.1 489.1,425.7 495,431.6 614.8,311.8 614.8,311.8 493.6,432.9 481.9,432.9 614.8,300.1 	
		"/>
	<polygon fill="#896530" points="614.8,275.6 464.6,425.7 470.5,431.6 614.8,287.3 614.8,287.3 469.1,432.9 457.5,432.9 
		614.8,275.6 	"/>
	<polygon fill="#896530" points="614.8,251.1 440.2,425.7 446,431.6 614.8,262.8 614.8,262.8 444.7,432.9 433,432.9 614.8,251.1 	
		"/>
	<path fill="#896530" d="M607.9,233.5L607.9,233.5L415.7,425.7l4,4c-1.6-1-3.1-2.3-4.3-3.8L607.9,233.5z"/>
	<rect x="517.5" y="200.6" fill="#896530" width="0" height="270"/>
	<rect x="499.4" y="192.2" fill="#896530" width="0" height="250.7"/>
	<polygon fill="#896530" points="599.3,229.3 599.3,229.3 598.9,229.7 411.2,417.4 411.2,417.4 	"/>
	<polygon fill="#896530" points="575.2,228.9 575.2,228.9 574.4,229.7 410.7,393.4 410.7,393.4 	"/>
	<rect x="487.1" y="197.2" fill="#896530" width="0" height="216.1"/>
	<rect x="474.9" y="202.3" fill="#896530" width="0" height="181.5"/>
	<polygon fill="#896530" points="550.8,228.9 550.8,228.9 549.9,229.7 410.7,368.9 410.7,368.9 	"/>
	<rect x="462.7" y="207.4" fill="#896530" width="0" height="146.9"/>
	<polygon fill="#896530" points="526.3,228.9 526.3,228.9 525.4,229.7 410.7,344.4 410.7,344.4 	"/>
	<rect x="450.4" y="212.4" fill="#896530" width="0" height="112.2"/>
	<polygon fill="#896530" points="501.8,228.9 501.8,228.9 500.9,229.7 410.7,319.9 410.7,319.9 	"/>
	<polygon fill="#896530" points="477.3,228.9 477.3,228.9 476.4,229.7 410.7,295.4 410.7,295.4 	"/>
	<rect x="438.2" y="217.5" fill="#896530" width="0" height="77.6"/>
	<polygon fill="#896530" points="452.8,228.9 452.8,228.9 452,229.7 410.7,271 410.7,271 	"/>
	<rect x="425.9" y="222.6" fill="#896530" width="0" height="43"/>
	<polygon fill="#896530" points="410.9,246.3 428.2,229 428.2,229 427.5,229.7 410.9,246.3 	"/>
	<polygon fill="#896530" points="587.1,425.7 614.8,398 614.8,398 611.6,401.3 614.8,404.5 614.8,409.7 592.9,431.6 	"/>
	<polygon fill="#896530" points="562.6,425.7 614.8,373.5 614.8,373.5 587.1,401.3 592.9,407.1 614.8,385.2 614.8,385.2 
		568.4,431.6 	"/>
	<polygon fill="#896530" points="538.1,425.7 614.8,349 614.8,349 562.6,401.3 568.4,407.1 614.8,360.7 614.8,360.7 543.9,431.6 	
		"/>
	<polygon fill="#896530" points="513.6,425.7 614.8,324.6 614.8,324.6 538.1,401.3 543.9,407.1 614.8,336.3 614.8,336.3 
		519.4,431.6 	"/>
	<polygon fill="#896530" points="489.1,425.7 614.8,300.1 614.8,300.1 513.6,401.3 519.4,407.1 614.8,311.8 614.8,311.8 495,431.6 	
		"/>
	<polygon fill="#896530" points="464.6,425.7 614.8,275.6 614.8,275.6 489.1,401.3 495,407.1 614.8,287.3 614.8,287.3 470.5,431.6 	
		"/>
	<polygon fill="#896530" points="440.2,425.7 614.8,251.1 614.8,251.1 464.6,401.3 470.5,407.1 614.8,262.8 614.8,262.8 446,431.6 	
		"/>
	<path fill="#896530" d="M607.9,233.5L607.9,233.5L440.2,401.3l5.8,5.8l166.9-166.9l0,0L422,431.1c-0.8-0.4-1.6-0.8-2.3-1.3l-4-4
		L607.9,233.5z"/>
	<path fill="#896530" d="M588,228.9L588,228.9L415.7,401.3l5.8,5.8l177.8-177.8l0,0L411.2,417.4c-0.3-1.3-0.4-2.7-0.4-4.1v-7.2
		L588,228.9z"/>
	<rect x="493" y="194.8" fill="#896530" width="0" height="232.6"/>
	<rect x="487.1" y="197.2" fill="#896530" width="0" height="216.1"/>
	<rect x="480.7" y="199.9" fill="#896530" width="0" height="198"/>
	<rect x="474.9" y="202.3" fill="#896530" width="0" height="181.5"/>
	<rect x="468.5" y="205" fill="#896530" width="0" height="163.4"/>
	<rect x="462.7" y="207.4" fill="#896530" width="0" height="146.9"/>
	<rect x="450.4" y="212.4" fill="#896530" width="0" height="112.2"/>
	<rect x="456.3" y="210" fill="#896530" width="0" height="128.8"/>
	<rect x="444" y="215.1" fill="#896530" width="0" height="94.1"/>
	<rect x="438.2" y="217.5" fill="#896530" width="0" height="77.6"/>
	<rect x="431.8" y="220.2" fill="#896530" width="0" height="59.5"/>
	<rect x="425.9" y="222.6" fill="#896530" width="0" height="43"/>
	<rect x="419.5" y="225.4" fill="#896530" width="0" height="24.5"/>
	<polygon fill="#896530" points="614.8,398 614.8,404.5 611.6,401.3 	"/>
	<polygon fill="#896530" points="587.1,401.3 614.8,373.5 614.8,373.5 611.6,376.8 614.8,380 614.8,385.2 592.9,407.1 	"/>
	<polygon fill="#896530" points="562.6,401.3 614.8,349 614.8,349 587.1,376.8 592.9,382.6 614.8,360.7 614.8,360.7 568.4,407.1 	
		"/>
	<polygon fill="#896530" points="538.1,401.3 614.8,324.6 614.8,324.6 562.6,376.8 568.4,382.6 614.8,336.3 614.8,336.3 
		543.9,407.1 	"/>
	<polygon fill="#896530" points="513.6,401.3 614.8,300.1 614.8,300.1 538.1,376.8 543.9,382.6 614.8,311.8 614.8,311.8 
		519.4,407.1 	"/>
	<polygon fill="#896530" points="489.1,401.3 614.8,275.6 614.8,275.6 513.6,376.8 519.4,382.6 614.8,287.3 614.8,287.3 495,407.1 	
		"/>
	<polygon fill="#896530" points="464.6,401.3 614.8,251.1 614.8,251.1 489.1,376.8 495,382.6 614.8,262.8 614.8,262.8 470.5,407.1 	
		"/>
	<polygon fill="#896530" points="446,407.1 440.2,401.3 607.9,233.5 607.9,233.5 464.6,376.8 470.5,382.6 612.9,240.2 612.9,240.2 	
		"/>
	<polygon fill="#896530" points="421.5,407.1 415.7,401.3 588,228.9 588,228.9 440.2,376.8 446,382.6 599.3,229.3 599.3,229.3 	"/>
	<polygon fill="#896530" points="563.6,228.9 563.6,228.9 415.7,376.8 421.5,382.6 575.2,228.9 575.2,228.9 410.7,393.4 
		410.7,381.7 	"/>
	<rect x="474.9" y="202.3" fill="#896530" width="0" height="181.5"/>
	<rect x="480.7" y="199.9" fill="#896530" width="0" height="198"/>
	<rect x="462.7" y="207.4" fill="#896530" width="0" height="146.9"/>
	<rect x="468.5" y="205" fill="#896530" width="0" height="163.4"/>
	<rect x="456.3" y="210" fill="#896530" width="0" height="128.8"/>
	<rect x="450.4" y="212.4" fill="#896530" width="0" height="112.2"/>
	<rect x="438.2" y="217.5" fill="#896530" width="0" height="77.6"/>
	<rect x="444" y="215.1" fill="#896530" width="0" height="94.1"/>
	<rect x="425.9" y="222.6" fill="#896530" width="0" height="43"/>
	<rect x="431.8" y="220.2" fill="#896530" width="0" height="59.5"/>
	<rect x="419.5" y="225.4" fill="#896530" width="0" height="24.5"/>
	<polygon fill="#896530" points="614.8,373.5 614.8,380 611.6,376.8 	"/>
	<polygon fill="#896530" points="587.1,376.8 614.8,349 614.8,349 611.6,352.3 614.8,355.5 614.8,360.7 592.9,382.6 	"/>
	<polygon fill="#896530" points="562.6,376.8 614.8,324.6 614.8,324.6 587.1,352.3 592.9,358.1 614.8,336.3 614.8,336.3 
		568.4,382.6 	"/>
	<polygon fill="#896530" points="538.1,376.8 614.8,300.1 614.8,300.1 562.6,352.3 568.4,358.1 614.8,311.8 614.8,311.8 
		543.9,382.6 	"/>
	<polygon fill="#896530" points="513.6,376.8 614.8,275.6 614.8,275.6 538.1,352.3 543.9,358.1 614.8,287.3 614.8,287.3 
		519.4,382.6 	"/>
	<polygon fill="#896530" points="489.1,376.8 614.8,251.1 614.8,251.1 513.6,352.3 519.4,358.1 614.8,262.8 614.8,262.8 495,382.6 	
		"/>
	<polygon fill="#896530" points="470.5,382.6 464.6,376.8 607.9,233.5 607.9,233.5 489.1,352.3 495,358.1 612.9,240.2 612.9,240.2 	
		"/>
	<polygon fill="#896530" points="446,382.6 440.2,376.8 588,228.9 588,228.9 464.6,352.3 470.5,358.1 599.3,229.3 599.3,229.3 	"/>
	<polygon fill="#896530" points="421.5,382.6 415.7,376.8 563.6,228.9 563.6,228.9 440.2,352.3 446,358.1 575.2,228.9 575.2,228.9 	
		"/>
	<polygon fill="#896530" points="539.1,228.9 539.1,228.9 415.7,352.3 421.5,358.1 550.8,228.9 550.8,228.9 410.7,368.9 
		410.7,357.2 	"/>
	<rect x="468.5" y="205" fill="#896530" width="0" height="163.4"/>
	<rect x="462.7" y="207.4" fill="#896530" width="0" height="146.9"/>
	<rect x="450.4" y="212.4" fill="#896530" width="0" height="112.2"/>
	<rect x="456.3" y="210" fill="#896530" width="0" height="128.8"/>
	<rect x="444" y="215.1" fill="#896530" width="0" height="94.1"/>
	<rect x="438.2" y="217.5" fill="#896530" width="0" height="77.6"/>
	<rect x="425.9" y="222.6" fill="#896530" width="0" height="43"/>
	<rect x="431.8" y="220.2" fill="#896530" width="0" height="59.5"/>
	<rect x="419.5" y="225.4" fill="#896530" width="0" height="24.5"/>
	<polygon fill="#896530" points="614.8,349 614.8,355.5 611.6,352.3 	"/>
	<polygon fill="#896530" points="587.1,352.3 614.8,324.6 614.8,324.6 611.6,327.8 614.8,331 614.8,336.3 592.9,358.1 	"/>
	<polygon fill="#896530" points="562.6,352.3 614.8,300.1 614.8,300.1 587.1,327.8 592.9,333.6 614.8,311.8 614.8,311.8 
		568.4,358.1 	"/>
	<polygon fill="#896530" points="538.1,352.3 614.8,275.6 614.8,275.6 562.6,327.8 568.4,333.6 614.8,287.3 614.8,287.3 
		543.9,358.1 	"/>
	<polygon fill="#896530" points="513.6,352.3 614.8,251.1 614.8,251.1 538.1,327.8 543.9,333.6 614.8,262.8 614.8,262.8 
		519.4,358.1 	"/>
	<polygon fill="#896530" points="495,358.1 489.1,352.3 607.9,233.5 607.9,233.5 513.6,327.8 519.4,333.6 612.9,240.2 612.9,240.2 	
		"/>
	<polygon fill="#896530" points="470.5,358.1 464.6,352.3 588,228.9 588,228.9 489.1,327.8 495,333.6 599.3,229.3 599.3,229.3 	"/>
	<polygon fill="#896530" points="446,358.1 440.2,352.3 563.6,228.9 563.6,228.9 464.6,327.8 470.5,333.6 575.2,228.9 575.2,228.9 	
		"/>
	<polygon fill="#896530" points="421.5,358.1 415.7,352.3 539.1,228.9 539.1,228.9 440.2,327.8 446,333.6 550.8,228.9 550.8,228.9 	
		"/>
	<polygon fill="#896530" points="514.6,228.9 514.6,228.9 415.7,327.8 421.5,333.6 526.3,228.9 526.3,228.9 410.7,344.4 
		410.7,332.7 	"/>
	<rect x="456.3" y="210" fill="#896530" width="0" height="128.8"/>
	<rect x="450.4" y="212.4" fill="#896530" width="0" height="112.2"/>
	<rect x="444" y="215.1" fill="#896530" width="0" height="94.1"/>
	<rect x="438.2" y="217.5" fill="#896530" width="0" height="77.6"/>
	<rect x="431.8" y="220.2" fill="#896530" width="0" height="59.5"/>
	<rect x="425.9" y="222.6" fill="#896530" width="0" height="43"/>
	<rect x="419.5" y="225.4" fill="#896530" width="0" height="24.5"/>
	<polygon fill="#896530" points="614.8,324.6 614.8,331 611.6,327.8 	"/>
	<polygon fill="#896530" points="587.1,327.8 614.8,300.1 614.8,300.1 611.6,303.3 614.8,306.6 614.8,311.8 592.9,333.6 	"/>
	<polygon fill="#896530" points="562.6,327.8 614.8,275.6 614.8,275.6 587.1,303.3 592.9,309.2 614.8,287.3 614.8,287.3 
		568.4,333.6 	"/>
	<polygon fill="#896530" points="538.1,327.8 614.8,251.1 614.8,251.1 562.6,303.3 568.4,309.2 614.8,262.8 614.8,262.8 
		543.9,333.6 	"/>
	<polygon fill="#896530" points="519.4,333.6 513.6,327.8 607.9,233.5 607.9,233.5 538.1,303.3 543.9,309.2 612.9,240.2 
		612.9,240.2 	"/>
	<polygon fill="#896530" points="495,333.6 489.1,327.8 588,228.9 588,228.9 513.6,303.3 519.4,309.2 599.3,229.3 599.3,229.3 	"/>
	<polygon fill="#896530" points="470.5,333.6 464.6,327.8 563.6,228.9 563.6,228.9 489.1,303.3 495,309.2 575.2,228.9 575.2,228.9 	
		"/>
	<polygon fill="#896530" points="446,333.6 440.2,327.8 539.1,228.9 539.1,228.9 464.6,303.3 470.5,309.2 550.8,228.9 550.8,228.9 	
		"/>
	<polygon fill="#896530" points="421.5,333.6 415.7,327.8 514.6,228.9 514.6,228.9 440.2,303.3 446,309.2 526.3,228.9 526.3,228.9 	
		"/>
	<polygon fill="#896530" points="490.1,228.9 490.1,228.9 415.7,303.3 421.5,309.2 501.8,228.9 501.8,228.9 410.7,319.9 
		410.7,308.2 	"/>
	<rect x="444" y="215.1" fill="#896530" width="0" height="94.1"/>
	<rect x="438.2" y="217.5" fill="#896530" width="0" height="77.6"/>
	<rect x="431.8" y="220.2" fill="#896530" width="0" height="59.5"/>
	<rect x="425.9" y="222.6" fill="#896530" width="0" height="43"/>
	<rect x="419.5" y="225.4" fill="#896530" width="0" height="24.5"/>
	<polygon fill="#896530" points="614.8,300.1 614.8,306.6 611.6,303.3 	"/>
	<polygon fill="#896530" points="587.1,303.3 614.8,275.6 614.8,275.6 611.6,278.8 614.8,282.1 614.8,287.3 592.9,309.2 	"/>
	<polygon fill="#896530" points="562.6,303.3 614.8,251.1 614.8,251.1 587.1,278.8 592.9,284.7 614.8,262.8 614.8,262.8 
		568.4,309.2 	"/>
	<polygon fill="#896530" points="543.9,309.2 538.1,303.3 607.9,233.5 607.9,233.5 562.6,278.8 568.4,284.7 612.9,240.2 
		612.9,240.2 	"/>
	<polygon fill="#896530" points="519.4,309.2 513.6,303.3 588,228.9 588,228.9 538.1,278.8 543.9,284.7 599.3,229.3 599.3,229.3 	
		"/>
	<polygon fill="#896530" points="495,309.2 489.1,303.3 563.6,228.9 563.6,228.9 513.6,278.8 519.4,284.7 575.2,228.9 575.2,228.9 	
		"/>
	<polygon fill="#896530" points="470.5,309.2 464.6,303.3 539.1,228.9 539.1,228.9 489.1,278.8 495,284.7 550.8,228.9 550.8,228.9 	
		"/>
	<polygon fill="#896530" points="446,309.2 440.2,303.3 514.6,228.9 514.6,228.9 464.6,278.8 470.5,284.7 526.3,228.9 526.3,228.9 	
		"/>
	<polygon fill="#896530" points="421.5,309.2 415.7,303.3 490.1,228.9 490.1,228.9 440.2,278.8 446,284.7 501.8,228.9 501.8,228.9 	
		"/>
	<polygon fill="#896530" points="465.6,228.9 465.6,228.9 415.7,278.8 421.5,284.7 477.3,228.9 477.3,228.9 410.7,295.4 
		410.7,283.8 	"/>
	<rect x="425.9" y="222.6" fill="#896530" width="0" height="43"/>
	<rect x="431.8" y="220.2" fill="#896530" width="0" height="59.5"/>
	<rect x="419.5" y="225.4" fill="#896530" width="0" height="24.5"/>
	<polygon fill="#896530" points="614.8,275.6 614.8,282.1 611.6,278.8 	"/>
	<polygon fill="#896530" points="587.1,278.8 614.8,251.1 614.8,251.1 611.6,254.3 614.8,257.6 614.8,262.8 592.9,284.7 	"/>
	<polygon fill="#896530" points="568.4,284.7 562.6,278.8 607.9,233.5 607.9,233.5 587.1,254.3 592.9,260.2 612.9,240.2 
		612.9,240.2 	"/>
	<polygon fill="#896530" points="543.9,284.7 538.1,278.8 588,228.9 588,228.9 562.6,254.3 568.4,260.2 599.3,229.3 599.3,229.3 	
		"/>
	<polygon fill="#896530" points="519.4,284.7 513.6,278.8 563.6,228.9 563.6,228.9 538.1,254.3 543.9,260.2 575.2,228.9 
		575.2,228.9 	"/>
	<polygon fill="#896530" points="495,284.7 489.1,278.8 539.1,228.9 539.1,228.9 513.6,254.3 519.4,260.2 550.8,228.9 550.8,228.9 	
		"/>
	<polygon fill="#896530" points="470.5,284.7 464.6,278.8 514.6,228.9 514.6,228.9 489.1,254.3 495,260.2 526.3,228.9 526.3,228.9 	
		"/>
	<polygon fill="#896530" points="446,284.7 440.2,278.8 490.1,228.9 490.1,228.9 464.6,254.3 470.5,260.2 501.8,228.9 501.8,228.9 	
		"/>
	<polygon fill="#896530" points="421.5,284.7 415.7,278.8 465.6,228.9 465.6,228.9 440.2,254.3 446,260.2 477.3,228.9 477.3,228.9 	
		"/>
	<polygon fill="#896530" points="441.1,228.9 441.1,228.9 415.7,254.3 421.5,260.2 452.8,228.9 452.8,228.9 410.7,271 410.7,259.3 	
		"/>
	<rect x="419.5" y="225.4" fill="#896530" width="0" height="24.5"/>
	<polygon fill="#896530" points="614.8,251.1 614.8,257.6 611.6,254.3 	"/>
	<path fill="#896530" d="M592.9,260.2l-5.8-5.8l20.8-20.8c2.1,1.8,3.9,4.1,5.1,6.6L592.9,260.2z"/>
	<polygon fill="#896530" points="568.4,260.2 562.6,254.3 588,228.9 588,228.9 587.1,229.9 592.9,235.7 599.3,229.3 599.3,229.3 	
		"/>
	<polygon fill="#896530" points="543.9,260.2 538.1,254.3 563.6,228.9 563.6,228.9 562.6,229.9 568.4,235.7 575.2,228.9 
		575.2,228.9 	"/>
	<polygon fill="#896530" points="519.4,260.2 513.6,254.3 539.1,228.9 539.1,228.9 538.1,229.9 543.9,235.7 550.8,228.9 
		550.8,228.9 	"/>
	<polygon fill="#896530" points="495,260.2 489.1,254.3 514.6,228.9 514.6,228.9 513.6,229.9 519.4,235.7 526.3,228.9 526.3,228.9 	
		"/>
	<polygon fill="#896530" points="470.5,260.2 464.6,254.3 490.1,228.9 490.1,228.9 489.1,229.9 495,235.7 501.8,228.9 501.8,228.9 	
		"/>
	<polygon fill="#896530" points="446,260.2 440.2,254.3 465.6,228.9 465.6,228.9 464.6,229.9 470.5,235.7 477.3,228.9 477.3,228.9 	
		"/>
	<polygon fill="#896530" points="421.5,260.2 415.7,254.3 441.1,228.9 441.1,228.9 440.2,229.9 446,235.7 452.8,228.9 452.8,228.9 	
		"/>
	<path fill="#896530" d="M410.9,246.3c0.6-5.5,3.5-10.4,7.7-13.6l2.9,2.9l6.7-6.7l0,0L410.9,246.3z"/>
	<path fill="#896530" d="M592.9,235.7l-5.8-5.8l1-1h7.2c1.4,0,2.8,0.2,4.1,0.4L592.9,235.7z"/>
	<polygon fill="#896530" points="568.4,235.7 562.6,229.9 563.6,228.9 575.2,228.9 	"/>
	<polygon fill="#896530" points="543.9,235.7 538.1,229.9 539.1,228.9 550.8,228.9 	"/>
	<polygon fill="#896530" points="519.4,235.7 513.6,229.9 514.6,228.9 526.3,228.9 	"/>
	<polygon fill="#896530" points="495,235.7 489.1,229.9 490.1,228.9 501.8,228.9 	"/>
	<polygon fill="#896530" points="470.5,235.7 464.6,229.9 465.6,228.9 477.3,228.9 	"/>
	<polygon fill="#896530" points="446,235.7 440.2,229.9 441.1,228.9 452.8,228.9 	"/>
	<path fill="#896530" d="M421.5,235.7l-2.9-2.9c2.7-2.1,6-3.4,9.6-3.8L421.5,235.7z"/>
</g>
<g>
	
		<linearGradient id="SVGID_7_" gradientUnits="userSpaceOnUse" x1="-110.0873" y1="-23.5499" x2="-110.0873" y2="104.92" gradientTransform="matrix(-1 0 0 1 287.3975 0)">
		<stop  offset="0" style="stop-color:#FFFFFF"/>
		<stop  offset="0.146" style="stop-color:#FDE5C9"/>
		<stop  offset="0.3047" style="stop-color:#FBCC95"/>
		<stop  offset="0.4611" style="stop-color:#F9B76A"/>
		<stop  offset="0.6117" style="stop-color:#F8A749"/>
		<stop  offset="0.7548" style="stop-color:#F79B31"/>
		<stop  offset="0.8877" style="stop-color:#F69423"/>
		<stop  offset="1" style="stop-color:#F6921E"/>
	</linearGradient>
	<path fill="url(#SVGID_7_)" stroke="#F6921E" stroke-width="5.554" d="M339.1,82c0,6.2,5,11.2,11.2,11.2h94.3
		c6.2,0,11.2-5,11.2-11.2v-94.3c0-6.2-5-11.2-11.2-11.2h-94.3c-6.2,0-11.2,5-11.2,11.2V82z"/>
	<g opacity="0.2">
		
			<linearGradient id="SVGID_8_" gradientUnits="userSpaceOnUse" x1="-110.0863" y1="93.1834" x2="-110.0863" y2="-35.2859" gradientTransform="matrix(-1 0 0 1 287.3975 0)">
			<stop  offset="0" style="stop-color:#FFFFFF"/>
			<stop  offset="0.2582" style="stop-color:#FFFEFD"/>
			<stop  offset="0.4005" style="stop-color:#FFFAF5"/>
			<stop  offset="0.5147" style="stop-color:#FEF3E7"/>
			<stop  offset="0.6139" style="stop-color:#FDEAD3"/>
			<stop  offset="0.7034" style="stop-color:#FCDEBA"/>
			<stop  offset="0.7859" style="stop-color:#FBCE9B"/>
			<stop  offset="0.8631" style="stop-color:#FABD76"/>
			<stop  offset="0.9341" style="stop-color:#F8A84C"/>
			<stop  offset="1" style="stop-color:#F6921E"/>
		</linearGradient>
		<path fill="url(#SVGID_8_)" d="M350.3-19.8h94.3c4.1,0,7.5,3.4,7.5,7.5v32c-10.3,1.7-20.5,4.6-30.6,8.3
			c-18.2,6.7-35.9,15-54.3,19.1c-8,1.8-16.2,2.6-24.4,2.6v-62C342.9-16.5,346.2-19.8,350.3-19.8z"/>
	</g>
	<g opacity="0.2">
		
			<rect x="432.7" y="84.2" transform="matrix(0.7071 -0.7071 0.7071 0.7071 71.2998 340.6061)" fill="#FBB216" stroke="#F6921E" width="28.2" height="0"/>
		
			<rect x="440.7" y="87.6" transform="matrix(0.7071 -0.7071 0.7071 0.7071 69.9174 343.9523)" fill="#FBB216" stroke="#F6921E" width="18.8" height="0"/>
		
			<rect x="415.8" y="77.2" transform="matrix(0.7071 -0.7071 0.7071 0.7071 74.1942 333.5915)" fill="#FBB216" stroke="#F6921E" width="48.1" height="0"/>
		
			<rect x="423.8" y="80.6" transform="matrix(0.7071 -0.7071 0.7071 0.7071 72.8092 336.9344)" fill="#FBB216" stroke="#F6921E" width="38.6" height="0"/>
		
			<rect x="398.8" y="70.2" transform="matrix(0.7071 -0.7071 0.7071 0.7071 77.101 326.5957)" fill="#FBB216" stroke="#F6921E" width="67.9" height="0"/>
		
			<rect x="406.9" y="73.6" transform="matrix(0.7071 -0.7071 0.7071 0.7071 75.7107 329.9303)" fill="#FBB216" stroke="#F6921E" width="58.4" height="0"/>
		
			<rect x="390" y="66.6" transform="matrix(0.7071 -0.7071 0.7071 0.7071 78.6146 322.9296)" fill="#FBB216" stroke="#F6921E" width="78.2" height="0"/>
		
			<rect x="381.9" y="63.2" transform="matrix(0.7071 -0.7071 0.7071 0.7071 79.999 319.5865)" fill="#FBB216" stroke="#F6921E" width="87.7" height="0"/>
		
			<rect x="365" y="56.2" transform="matrix(0.7071 -0.7071 0.7071 0.7071 82.9006 312.5828)" fill="#FBB216" stroke="#F6921E" width="107.5" height="0"/>
		
			<rect x="373.1" y="59.6" transform="matrix(0.7071 -0.7071 0.7071 0.7071 81.5122 315.9211)" fill="#FBB216" stroke="#F6921E" width="98" height="0"/>
		
			<rect x="348.1" y="49.2" transform="matrix(0.7071 -0.7071 0.7071 0.7071 85.8017 305.5781)" fill="#FBB216" stroke="#F6921E" width="127.3" height="0"/>
		
			<rect x="356.2" y="52.6" transform="matrix(0.7071 -0.7071 0.7071 0.7071 84.4118 308.9151)" fill="#FBB216" stroke="#F6921E" width="117.8" height="0"/>
		
			<rect x="339.3" y="45.6" transform="matrix(0.7071 -0.7071 0.7071 0.7071 87.3132 301.9117)" fill="#FBB216" stroke="#F6921E" width="137.7" height="0"/>
		
			<rect x="331.2" y="42.2" transform="matrix(0.7071 -0.7071 0.7071 0.7071 88.7038 298.5755)" fill="#FBB216" stroke="#F6921E" width="147.1" height="0"/>
		
			<rect x="325.5" y="42.6" transform="matrix(0.7071 -0.7071 0.7071 0.7071 86.1937 293.2398)" fill="#FBB216" stroke="#F6921E" width="143.1" height="0"/>
		
			<rect x="321.7" y="39.5" transform="matrix(0.7071 -0.7071 0.7071 0.7071 87.3569 289.8093)" fill="#FBB216" stroke="#F6921E" width="143.7" height="0"/>
		
			<rect x="321.3" y="33.8" transform="matrix(0.7071 -0.7071 0.7071 0.7071 88.9263 282.2545)" fill="#FBB216" stroke="#F6921E" width="127.7" height="0"/>
		
			<rect x="320.9" y="38.7" transform="matrix(0.7071 -0.7071 0.7071 0.7071 85.9918 284.9528)" fill="#FBB216" stroke="#F6921E" width="132" height="0"/>
		
			<rect x="324.2" y="26.8" transform="matrix(0.7071 -0.7071 0.7071 0.7071 91.8283 275.2512)" fill="#FBB216" stroke="#F6921E" width="107.9" height="0"/>
		
			<rect x="323.5" y="31.8" transform="matrix(0.7071 -0.7071 0.7071 0.7071 88.7668 277.895)" fill="#FBB216" stroke="#F6921E" width="112.6" height="0"/>
		
			<rect x="326.4" y="24.8" transform="matrix(0.7071 -0.7071 0.7071 0.7071 91.6704 270.8944)" fill="#FBB216" stroke="#F6921E" width="92.8" height="0"/>
		
			<rect x="327.1" y="19.8" transform="matrix(0.7071 -0.7071 0.7071 0.7071 94.7277 268.2444)" fill="#FBB216" stroke="#F6921E" width="88.1" height="0"/>
		
			<rect x="330" y="12.8" transform="matrix(0.7071 -0.7071 0.7071 0.7071 97.6287 261.2405)" fill="#FBB216" stroke="#F6921E" width="68.2" height="0"/>
		
			<rect x="329.3" y="17.8" transform="matrix(0.7071 -0.7071 0.7071 0.7071 94.5702 263.8889)" fill="#FBB216" stroke="#F6921E" width="73" height="0"/>
		
			<rect x="332.9" y="5.8" transform="matrix(0.7071 -0.7071 0.7071 0.7071 100.5301 254.2361)" fill="#FBB216" stroke="#F6921E" width="48.4" height="0"/>
		
			<rect x="332.2" y="10.8" transform="matrix(0.7071 -0.7071 0.7071 0.7071 97.4691 256.8817)" fill="#FBB216" stroke="#F6921E" width="53.2" height="0"/>
		
			<rect x="335.1" y="3.8" transform="matrix(0.7071 -0.7071 0.7071 0.7071 100.3775 249.8855)" fill="#FBB216" stroke="#F6921E" width="33.3" height="0"/>
		
			<rect x="335.8" y="-1.2" transform="matrix(0.7071 -0.7071 0.7071 0.7071 103.4366 247.2374)" fill="#FBB216" stroke="#F6921E" width="28.6" height="0"/>
		
			<rect x="338.7" y="-8.2" transform="matrix(0.7072 -0.707 0.707 0.7072 106.2831 240.1809)" fill="#FBB216" stroke="#F6921E" width="8.8" height="0"/>
		
			<rect x="338" y="-3.2" transform="matrix(0.7071 -0.7071 0.7071 0.7071 103.2823 242.8853)" fill="#FBB216" stroke="#F6921E" width="13.5" height="0"/>
		
			<rect x="432.7" y="84.2" transform="matrix(0.7071 -0.7071 0.7071 0.7071 71.2998 340.6061)" fill="#FBB216" stroke="#F6921E" width="28.2" height="0"/>
		
			<rect x="440.7" y="87.6" transform="matrix(0.7071 -0.7071 0.7071 0.7071 69.9174 343.9523)" fill="#FBB216" stroke="#F6921E" width="18.8" height="0"/>
		
			<rect x="423.8" y="80.6" transform="matrix(0.7071 -0.7071 0.7071 0.7071 72.8092 336.9344)" fill="#FBB216" stroke="#F6921E" width="38.6" height="0"/>
		
			<rect x="415.8" y="77.2" transform="matrix(0.7071 -0.7071 0.7071 0.7071 74.1942 333.5915)" fill="#FBB216" stroke="#F6921E" width="48.1" height="0"/>
		
			<rect x="406.9" y="73.6" transform="matrix(0.7071 -0.7071 0.7071 0.7071 75.7107 329.9303)" fill="#FBB216" stroke="#F6921E" width="58.4" height="0"/>
		
			<rect x="398.8" y="70.2" transform="matrix(0.7071 -0.7071 0.7071 0.7071 77.101 326.5957)" fill="#FBB216" stroke="#F6921E" width="67.9" height="0"/>
		
			<rect x="381.9" y="63.2" transform="matrix(0.7071 -0.7071 0.7071 0.7071 79.999 319.5865)" fill="#FBB216" stroke="#F6921E" width="87.7" height="0"/>
		
			<rect x="390" y="66.6" transform="matrix(0.7071 -0.7071 0.7071 0.7071 78.6146 322.9296)" fill="#FBB216" stroke="#F6921E" width="78.2" height="0"/>
		
			<rect x="373.1" y="59.6" transform="matrix(0.7071 -0.7071 0.7071 0.7071 81.5122 315.9211)" fill="#FBB216" stroke="#F6921E" width="98" height="0"/>
		
			<rect x="365" y="56.2" transform="matrix(0.7071 -0.7071 0.7071 0.7071 82.9006 312.5828)" fill="#FBB216" stroke="#F6921E" width="107.5" height="0"/>
		
			<rect x="348.1" y="49.2" transform="matrix(0.7071 -0.7071 0.7071 0.7071 85.8017 305.5781)" fill="#FBB216" stroke="#F6921E" width="127.3" height="0"/>
		
			<rect x="356.2" y="52.6" transform="matrix(0.7071 -0.7071 0.7071 0.7071 84.4137 308.9169)" fill="#FBB216" stroke="#F6921E" width="117.8" height="0"/>
		
			<rect x="331.2" y="42.2" transform="matrix(0.7071 -0.7071 0.7071 0.7071 88.7038 298.5755)" fill="#FBB216" stroke="#F6921E" width="147.1" height="0"/>
		
			<rect x="339.3" y="45.6" transform="matrix(0.7071 -0.7071 0.7071 0.7071 87.3132 301.9117)" fill="#FBB216" stroke="#F6921E" width="137.7" height="0"/>
		<polygon fill="#FBB216" stroke="#F6921E" points="455.7,-16.1 455.7,-16.1 447.7,-8 346.5,93.2 346.5,93.2 		"/>
		<polygon fill="#FBB216" stroke="#F6921E" points="452.8,-19.8 452.8,-19.8 342.7,90.3 342.7,90.3 444.3,-11.4 		"/>
		<polygon fill="#FBB216" stroke="#F6921E" points="441.5,-22.5 441.5,-22.5 340,78.9 340,78.9 430.3,-11.4 		"/>
		<polygon fill="#FBB216" stroke="#F6921E" points="447.7,-22 447.7,-22 433.7,-8 340.3,85.4 340.3,85.4 		"/>
		<polygon fill="#FBB216" stroke="#F6921E" points="433.7,-22 433.7,-22 419.6,-8 340,71.6 340,71.6 		"/>
		<polygon fill="#FBB216" stroke="#F6921E" points="427.5,-22.5 427.5,-22.5 340,64.9 340,64.9 416.3,-11.4 		"/>
		<polygon fill="#FBB216" stroke="#F6921E" points="413.5,-22.5 413.5,-22.5 340,50.9 340,50.9 402.3,-11.4 		"/>
		<polygon fill="#FBB216" stroke="#F6921E" points="419.6,-22 419.6,-22 405.6,-8 340,57.6 340,57.6 		"/>
		<polygon fill="#FBB216" stroke="#F6921E" points="399.4,-22.5 399.4,-22.5 340,36.9 340,36.9 388.3,-11.4 		"/>
		<polygon fill="#FBB216" stroke="#F6921E" points="405.6,-22 405.6,-22 391.6,-8 340,43.6 340,43.6 		"/>
		<polygon fill="#FBB216" stroke="#F6921E" points="385.4,-22.5 385.4,-22.5 340,22.9 340,22.9 374.3,-11.4 		"/>
		<polygon fill="#FBB216" stroke="#F6921E" points="391.6,-22 391.6,-22 377.6,-8 340,29.6 340,29.6 		"/>
		<polygon fill="#FBB216" stroke="#F6921E" points="377.6,-22 377.6,-22 363.6,-8 340,15.6 340,15.6 		"/>
		<polygon fill="#FBB216" stroke="#F6921E" points="371.4,-22.5 371.4,-22.5 340,8.9 340,8.9 360.3,-11.4 		"/>
		<polygon fill="#FBB216" stroke="#F6921E" points="357.4,-22.5 357.4,-22.5 340,-5.1 340,-5.1 346.3,-11.4 		"/>
		<polygon fill="#FBB216" stroke="#F6921E" points="363.6,-22 363.6,-22 349.6,-8 340,1.6 340,1.6 		"/>
		<rect x="344.9" y="-24" fill="#FBB216" stroke="#F6921E" width="0" height="13.4"/>
		<polygon fill="#FBB216" stroke="#F6921E" points="456.8,74.3 440.9,90.1 444.3,93.5 456.8,80.9 456.8,80.9 443.5,94.2 436.8,94.2 
			456.8,74.3 		"/>
		<polygon fill="#FBB216" stroke="#F6921E" points="456.8,60.2 426.9,90.1 430.2,93.5 456.8,66.9 456.8,66.9 429.5,94.2 422.8,94.2 
			456.8,60.2 		"/>
		<polygon fill="#FBB216" stroke="#F6921E" points="456.8,46.2 412.9,90.1 416.2,93.5 456.8,52.9 456.8,52.9 415.5,94.2 408.8,94.2 
			456.8,46.2 		"/>
		<polygon fill="#FBB216" stroke="#F6921E" points="456.8,32.2 398.9,90.1 402.2,93.5 456.8,38.9 456.8,38.9 401.5,94.2 394.8,94.2 
			456.8,32.2 		"/>
		<polygon fill="#FBB216" stroke="#F6921E" points="456.8,18.2 384.9,90.1 388.2,93.5 456.8,24.9 456.8,24.9 387.4,94.2 380.8,94.2 
			456.8,18.2 		"/>
		<polygon fill="#FBB216" stroke="#F6921E" points="456.8,4.2 370.9,90.1 374.2,93.5 456.8,10.9 456.8,10.9 373.4,94.2 366.8,94.2 
			456.8,4.2 		"/>
		<polygon fill="#FBB216" stroke="#F6921E" points="456.8,-9.8 356.9,90.1 360.2,93.5 456.8,-3.1 456.8,-3.1 359.4,94.2 352.7,94.2 
			456.8,-9.8 		"/>
		<path fill="#FBB216" stroke="#F6921E" d="M452.8-19.8L452.8-19.8l-110,110l2.3,2.3c-0.9-0.6-1.7-1.3-2.5-2.2L452.8-19.8z"/>
		<rect x="401.1" y="-38.7" fill="#FBB216" stroke="#F6921E" width="0" height="154.4"/>
		<rect x="390.8" y="-43.5" fill="#FBB216" stroke="#F6921E" width="0" height="143.5"/>
		<polygon fill="#FBB216" stroke="#F6921E" points="447.9,-22.3 447.9,-22.3 447.7,-22 340.3,85.4 340.3,85.4 		"/>
		<polygon fill="#FBB216" stroke="#F6921E" points="434.1,-22.5 434.1,-22.5 433.7,-22 340,71.6 340,71.6 		"/>
		<rect x="383.7" y="-40.6" fill="#FBB216" stroke="#F6921E" width="0" height="123.6"/>
		<rect x="376.7" y="-37.7" fill="#FBB216" stroke="#F6921E" width="0" height="103.8"/>
		<polygon fill="#FBB216" stroke="#F6921E" points="420.1,-22.5 420.1,-22.5 419.6,-22 340,57.6 340,57.6 		"/>
		<rect x="369.7" y="-34.8" fill="#FBB216" stroke="#F6921E" width="0" height="84"/>
		<polygon fill="#FBB216" stroke="#F6921E" points="406.1,-22.5 406.1,-22.5 405.6,-22 340,43.6 340,43.6 		"/>
		<rect x="362.7" y="-31.9" fill="#FBB216" stroke="#F6921E" width="0" height="64.2"/>
		<polygon fill="#FBB216" stroke="#F6921E" points="392.1,-22.5 392.1,-22.5 391.6,-22 340,29.6 340,29.6 		"/>
		<polygon fill="#FBB216" stroke="#F6921E" points="378.1,-22.5 378.1,-22.5 377.6,-22 340,15.6 340,15.6 		"/>
		<rect x="355.7" y="-29" fill="#FBB216" stroke="#F6921E" width="0" height="44.4"/>
		<polygon fill="#FBB216" stroke="#F6921E" points="364.1,-22.5 364.1,-22.5 363.6,-22 340,1.6 340,1.6 		"/>
		<rect x="348.7" y="-26.1" fill="#FBB216" stroke="#F6921E" width="0" height="24.6"/>
		<polygon fill="#FBB216" stroke="#F6921E" points="340.1,-12.5 350,-22.4 350,-22.4 349.6,-22 340.1,-12.5 		"/>
		<polygon fill="#FBB216" stroke="#F6921E" points="440.9,90.1 456.8,74.3 456.8,74.3 454.9,76.1 456.8,78 456.8,80.9 444.3,93.5 		
			"/>
		<polygon fill="#FBB216" stroke="#F6921E" points="426.9,90.1 456.8,60.2 456.8,60.2 440.9,76.1 444.3,79.4 456.8,66.9 456.8,66.9 
			430.2,93.5 		"/>
		<polygon fill="#FBB216" stroke="#F6921E" points="412.9,90.1 456.8,46.2 456.8,46.2 426.9,76.1 430.2,79.4 456.8,52.9 456.8,52.9 
			416.2,93.5 		"/>
		<polygon fill="#FBB216" stroke="#F6921E" points="398.9,90.1 456.8,32.2 456.8,32.2 412.9,76.1 416.2,79.4 456.8,38.9 456.8,38.9 
			402.2,93.5 		"/>
		<polygon fill="#FBB216" stroke="#F6921E" points="384.9,90.1 456.8,18.2 456.8,18.2 398.9,76.1 402.2,79.4 456.8,24.9 456.8,24.9 
			388.2,93.5 		"/>
		<polygon fill="#FBB216" stroke="#F6921E" points="370.9,90.1 456.8,4.2 456.8,4.2 384.9,76.1 388.2,79.4 456.8,10.9 456.8,10.9 
			374.2,93.5 		"/>
		<polygon fill="#FBB216" stroke="#F6921E" points="356.9,90.1 456.8,-9.8 456.8,-9.8 370.9,76.1 374.2,79.4 456.8,-3.1 456.8,-3.1 
			360.2,93.5 		"/>
		<path fill="#FBB216" stroke="#F6921E" d="M452.8-19.8L452.8-19.8l-96,96l3.3,3.3l95.5-95.5l0,0L346.5,93.2
			c-0.5-0.2-0.9-0.5-1.3-0.7l-2.3-2.3L452.8-19.8z"/>
		<path fill="#FBB216" stroke="#F6921E" d="M441.5-22.5L441.5-22.5l-98.6,98.6l3.3,3.3L447.9-22.3l0,0L340.3,85.4
			c-0.2-0.8-0.2-1.5-0.2-2.3v-4.1L441.5-22.5z"/>
		<rect x="387.1" y="-42" fill="#FBB216" stroke="#F6921E" width="0" height="133.1"/>
		<rect x="383.7" y="-40.6" fill="#FBB216" stroke="#F6921E" width="0" height="123.6"/>
		<rect x="380.1" y="-39.1" fill="#FBB216" stroke="#F6921E" width="0" height="113.3"/>
		<rect x="376.7" y="-37.7" fill="#FBB216" stroke="#F6921E" width="0" height="103.8"/>
		<rect x="373.1" y="-36.2" fill="#FBB216" stroke="#F6921E" width="0" height="93.5"/>
		<rect x="369.7" y="-34.8" fill="#FBB216" stroke="#F6921E" width="0" height="84"/>
		<rect x="362.7" y="-31.9" fill="#FBB216" stroke="#F6921E" width="0" height="64.2"/>
		<rect x="366.1" y="-33.3" fill="#FBB216" stroke="#F6921E" width="0" height="73.7"/>
		<rect x="359.1" y="-30.4" fill="#FBB216" stroke="#F6921E" width="0" height="53.9"/>
		<rect x="355.7" y="-29" fill="#FBB216" stroke="#F6921E" width="0" height="44.4"/>
		<rect x="352.1" y="-27.5" fill="#FBB216" stroke="#F6921E" width="0" height="34"/>
		<rect x="348.7" y="-26.1" fill="#FBB216" stroke="#F6921E" width="0" height="24.6"/>
		<rect x="345.1" y="-24.5" fill="#FBB216" stroke="#F6921E" width="0" height="14"/>
		<polygon fill="#FBB216" stroke="#F6921E" points="456.8,74.3 456.8,78 454.9,76.1 		"/>
		<polygon fill="#FBB216" stroke="#F6921E" points="440.9,76.1 456.8,60.2 456.8,60.2 454.9,62.1 456.8,64 456.8,66.9 444.3,79.4 		
			"/>
		<polygon fill="#FBB216" stroke="#F6921E" points="426.9,76.1 456.8,46.2 456.8,46.2 440.9,62.1 444.3,65.4 456.8,52.9 456.8,52.9 
			430.2,79.4 		"/>
		<polygon fill="#FBB216" stroke="#F6921E" points="412.9,76.1 456.8,32.2 456.8,32.2 426.9,62.1 430.2,65.4 456.8,38.9 456.8,38.9 
			416.2,79.4 		"/>
		<polygon fill="#FBB216" stroke="#F6921E" points="398.9,76.1 456.8,18.2 456.8,18.2 412.9,62.1 416.2,65.4 456.8,24.9 456.8,24.9 
			402.2,79.4 		"/>
		<polygon fill="#FBB216" stroke="#F6921E" points="384.9,76.1 456.8,4.2 456.8,4.2 398.9,62.1 402.2,65.4 456.8,10.9 456.8,10.9 
			388.2,79.4 		"/>
		<polygon fill="#FBB216" stroke="#F6921E" points="370.9,76.1 456.8,-9.8 456.8,-9.8 384.9,62.1 388.2,65.4 456.8,-3.1 456.8,-3.1 
			374.2,79.4 		"/>
		<polygon fill="#FBB216" stroke="#F6921E" points="360.2,79.4 356.9,76.1 452.8,-19.8 452.8,-19.8 370.9,62.1 374.2,65.4 
			455.7,-16.1 455.7,-16.1 		"/>
		<polygon fill="#FBB216" stroke="#F6921E" points="346.2,79.4 342.8,76.1 441.5,-22.5 441.5,-22.5 356.9,62.1 360.2,65.4 
			447.9,-22.3 447.9,-22.3 		"/>
		<polygon fill="#FBB216" stroke="#F6921E" points="427.5,-22.5 427.5,-22.5 342.8,62.1 346.2,65.4 434.1,-22.5 434.1,-22.5 
			340,71.6 340,64.9 		"/>
		<rect x="376.7" y="-37.7" fill="#FBB216" stroke="#F6921E" width="0" height="103.8"/>
		<rect x="380.1" y="-39.1" fill="#FBB216" stroke="#F6921E" width="0" height="113.3"/>
		<rect x="369.7" y="-34.8" fill="#FBB216" stroke="#F6921E" width="0" height="84"/>
		<rect x="373.1" y="-36.2" fill="#FBB216" stroke="#F6921E" width="0" height="93.5"/>
		<rect x="366.1" y="-33.3" fill="#FBB216" stroke="#F6921E" width="0" height="73.7"/>
		<rect x="362.7" y="-31.9" fill="#FBB216" stroke="#F6921E" width="0" height="64.2"/>
		<rect x="355.7" y="-29" fill="#FBB216" stroke="#F6921E" width="0" height="44.4"/>
		<rect x="359.1" y="-30.4" fill="#FBB216" stroke="#F6921E" width="0" height="53.9"/>
		<rect x="348.7" y="-26.1" fill="#FBB216" stroke="#F6921E" width="0" height="24.6"/>
		<rect x="352.1" y="-27.5" fill="#FBB216" stroke="#F6921E" width="0" height="34"/>
		<rect x="345.1" y="-24.5" fill="#FBB216" stroke="#F6921E" width="0" height="14"/>
		<polygon fill="#FBB216" stroke="#F6921E" points="456.8,60.2 456.8,64 454.9,62.1 		"/>
		<polygon fill="#FBB216" stroke="#F6921E" points="440.9,62.1 456.8,46.2 456.8,46.2 454.9,48.1 456.8,49.9 456.8,52.9 444.3,65.4 
					"/>
		<polygon fill="#FBB216" stroke="#F6921E" points="426.9,62.1 456.8,32.2 456.8,32.2 440.9,48.1 444.3,51.4 456.8,38.9 456.8,38.9 
			430.2,65.4 		"/>
		<polygon fill="#FBB216" stroke="#F6921E" points="412.9,62.1 456.8,18.2 456.8,18.2 426.9,48.1 430.2,51.4 456.8,24.9 456.8,24.9 
			416.2,65.4 		"/>
		<polygon fill="#FBB216" stroke="#F6921E" points="398.9,62.1 456.8,4.2 456.8,4.2 412.9,48.1 416.2,51.4 456.8,10.9 456.8,10.9 
			402.2,65.4 		"/>
		<polygon fill="#FBB216" stroke="#F6921E" points="384.9,62.1 456.8,-9.8 456.8,-9.8 398.9,48.1 402.2,51.4 456.8,-3.1 456.8,-3.1 
			388.2,65.4 		"/>
		<polygon fill="#FBB216" stroke="#F6921E" points="374.2,65.4 370.9,62.1 452.8,-19.8 452.8,-19.8 384.9,48.1 388.2,51.4 
			455.7,-16.1 455.7,-16.1 		"/>
		<polygon fill="#FBB216" stroke="#F6921E" points="360.2,65.4 356.9,62.1 441.5,-22.5 441.5,-22.5 370.9,48.1 374.2,51.4 
			447.9,-22.3 447.9,-22.3 		"/>
		<polygon fill="#FBB216" stroke="#F6921E" points="346.2,65.4 342.8,62.1 427.5,-22.5 427.5,-22.5 356.9,48.1 360.2,51.4 
			434.1,-22.5 434.1,-22.5 		"/>
		<polygon fill="#FBB216" stroke="#F6921E" points="413.5,-22.5 413.5,-22.5 342.8,48.1 346.2,51.4 420.1,-22.5 420.1,-22.5 
			340,57.6 340,50.9 		"/>
		<rect x="373.1" y="-36.2" fill="#FBB216" stroke="#F6921E" width="0" height="93.5"/>
		<rect x="369.7" y="-34.8" fill="#FBB216" stroke="#F6921E" width="0" height="84"/>
		<rect x="362.7" y="-31.9" fill="#FBB216" stroke="#F6921E" width="0" height="64.2"/>
		<rect x="366.1" y="-33.3" fill="#FBB216" stroke="#F6921E" width="0" height="73.7"/>
		<rect x="359.1" y="-30.4" fill="#FBB216" stroke="#F6921E" width="0" height="53.9"/>
		<rect x="355.7" y="-29" fill="#FBB216" stroke="#F6921E" width="0" height="44.4"/>
		<rect x="348.7" y="-26.1" fill="#FBB216" stroke="#F6921E" width="0" height="24.6"/>
		<rect x="352.1" y="-27.5" fill="#FBB216" stroke="#F6921E" width="0" height="34"/>
		<rect x="345.1" y="-24.5" fill="#FBB216" stroke="#F6921E" width="0" height="14"/>
		<polygon fill="#FBB216" stroke="#F6921E" points="456.8,46.2 456.8,49.9 454.9,48.1 		"/>
		<polygon fill="#FBB216" stroke="#F6921E" points="440.9,48.1 456.8,32.2 456.8,32.2 454.9,34.1 456.8,35.9 456.8,38.9 444.3,51.4 
					"/>
		<polygon fill="#FBB216" stroke="#F6921E" points="426.9,48.1 456.8,18.2 456.8,18.2 440.9,34.1 444.3,37.4 456.8,24.9 456.8,24.9 
			430.2,51.4 		"/>
		<polygon fill="#FBB216" stroke="#F6921E" points="412.9,48.1 456.8,4.2 456.8,4.2 426.9,34.1 430.2,37.4 456.8,10.9 456.8,10.9 
			416.2,51.4 		"/>
		<polygon fill="#FBB216" stroke="#F6921E" points="398.9,48.1 456.8,-9.8 456.8,-9.8 412.9,34.1 416.2,37.4 456.8,-3.1 456.8,-3.1 
			402.2,51.4 		"/>
		<polygon fill="#FBB216" stroke="#F6921E" points="388.2,51.4 384.9,48.1 452.8,-19.8 452.8,-19.8 398.9,34.1 402.2,37.4 
			455.7,-16.1 455.7,-16.1 		"/>
		<polygon fill="#FBB216" stroke="#F6921E" points="374.2,51.4 370.9,48.1 441.5,-22.5 441.5,-22.5 384.9,34.1 388.2,37.4 
			447.9,-22.3 447.9,-22.3 		"/>
		<polygon fill="#FBB216" stroke="#F6921E" points="360.2,51.4 356.9,48.1 427.5,-22.5 427.5,-22.5 370.9,34.1 374.2,37.4 
			434.1,-22.5 434.1,-22.5 		"/>
		<polygon fill="#FBB216" stroke="#F6921E" points="346.2,51.4 342.8,48.1 413.5,-22.5 413.5,-22.5 356.9,34.1 360.2,37.4 
			420.1,-22.5 420.1,-22.5 		"/>
		<polygon fill="#FBB216" stroke="#F6921E" points="399.4,-22.5 399.4,-22.5 342.8,34.1 346.2,37.4 406.1,-22.5 406.1,-22.5 
			340,43.6 340,36.9 		"/>
		<rect x="366.1" y="-33.3" fill="#FBB216" stroke="#F6921E" width="0" height="73.7"/>
		<rect x="362.7" y="-31.9" fill="#FBB216" stroke="#F6921E" width="0" height="64.2"/>
		<rect x="359.1" y="-30.4" fill="#FBB216" stroke="#F6921E" width="0" height="53.9"/>
		<rect x="355.7" y="-29" fill="#FBB216" stroke="#F6921E" width="0" height="44.4"/>
		<rect x="352.1" y="-27.5" fill="#FBB216" stroke="#F6921E" width="0" height="34"/>
		<rect x="348.7" y="-26.1" fill="#FBB216" stroke="#F6921E" width="0" height="24.6"/>
		<rect x="345.1" y="-24.5" fill="#FBB216" stroke="#F6921E" width="0" height="14"/>
		<polygon fill="#FBB216" stroke="#F6921E" points="456.8,32.2 456.8,35.9 454.9,34.1 		"/>
		<polygon fill="#FBB216" stroke="#F6921E" points="440.9,34.1 456.8,18.2 456.8,18.2 454.9,20.1 456.8,21.9 456.8,24.9 444.3,37.4 
					"/>
		<polygon fill="#FBB216" stroke="#F6921E" points="426.9,34.1 456.8,4.2 456.8,4.2 440.9,20.1 444.3,23.4 456.8,10.9 456.8,10.9 
			430.2,37.4 		"/>
		<polygon fill="#FBB216" stroke="#F6921E" points="412.9,34.1 456.8,-9.8 456.8,-9.8 426.9,20.1 430.2,23.4 456.8,-3.1 456.8,-3.1 
			416.2,37.4 		"/>
		<polygon fill="#FBB216" stroke="#F6921E" points="402.2,37.4 398.9,34.1 452.8,-19.8 452.8,-19.8 412.9,20.1 416.2,23.4 
			455.7,-16.1 455.7,-16.1 		"/>
		<polygon fill="#FBB216" stroke="#F6921E" points="388.2,37.4 384.9,34.1 441.5,-22.5 441.5,-22.5 398.9,20.1 402.2,23.4 
			447.9,-22.3 447.9,-22.3 		"/>
		<polygon fill="#FBB216" stroke="#F6921E" points="374.2,37.4 370.9,34.1 427.5,-22.5 427.5,-22.5 384.9,20.1 388.2,23.4 
			434.1,-22.5 434.1,-22.5 		"/>
		<polygon fill="#FBB216" stroke="#F6921E" points="360.2,37.4 356.9,34.1 413.5,-22.5 413.5,-22.5 370.9,20.1 374.2,23.4 
			420.1,-22.5 420.1,-22.5 		"/>
		<polygon fill="#FBB216" stroke="#F6921E" points="346.2,37.4 342.8,34.1 399.4,-22.5 399.4,-22.5 356.9,20.1 360.2,23.4 
			406.1,-22.5 406.1,-22.5 		"/>
		<polygon fill="#FBB216" stroke="#F6921E" points="385.4,-22.5 385.4,-22.5 342.8,20.1 346.2,23.4 392.1,-22.5 392.1,-22.5 
			340,29.6 340,22.9 		"/>
		<rect x="359.1" y="-30.4" fill="#FBB216" stroke="#F6921E" width="0" height="53.9"/>
		<rect x="355.7" y="-29" fill="#FBB216" stroke="#F6921E" width="0" height="44.4"/>
		<rect x="352.1" y="-27.5" fill="#FBB216" stroke="#F6921E" width="0" height="34"/>
		<rect x="348.7" y="-26.1" fill="#FBB216" stroke="#F6921E" width="0" height="24.6"/>
		<rect x="345.1" y="-24.5" fill="#FBB216" stroke="#F6921E" width="0" height="14"/>
		<polygon fill="#FBB216" stroke="#F6921E" points="456.8,18.2 456.8,21.9 454.9,20.1 		"/>
		<polygon fill="#FBB216" stroke="#F6921E" points="440.9,20.1 456.8,4.2 456.8,4.2 454.9,6.1 456.8,7.9 456.8,10.9 444.3,23.4 		
			"/>
		<polygon fill="#FBB216" stroke="#F6921E" points="426.9,20.1 456.8,-9.8 456.8,-9.8 440.9,6.1 444.3,9.4 456.8,-3.1 456.8,-3.1 
			430.2,23.4 		"/>
		<polygon fill="#FBB216" stroke="#F6921E" points="416.2,23.4 412.9,20.1 452.8,-19.8 452.8,-19.8 426.9,6.1 430.2,9.4 
			455.7,-16.1 455.7,-16.1 		"/>
		<polygon fill="#FBB216" stroke="#F6921E" points="402.2,23.4 398.9,20.1 441.5,-22.5 441.5,-22.5 412.9,6.1 416.2,9.4 
			447.9,-22.3 447.9,-22.3 		"/>
		<polygon fill="#FBB216" stroke="#F6921E" points="388.2,23.4 384.9,20.1 427.5,-22.5 427.5,-22.5 398.9,6.1 402.2,9.4 
			434.1,-22.5 434.1,-22.5 		"/>
		<polygon fill="#FBB216" stroke="#F6921E" points="374.2,23.4 370.9,20.1 413.5,-22.5 413.5,-22.5 384.9,6.1 388.2,9.4 
			420.1,-22.5 420.1,-22.5 		"/>
		<polygon fill="#FBB216" stroke="#F6921E" points="360.2,23.4 356.9,20.1 399.4,-22.5 399.4,-22.5 370.9,6.1 374.2,9.4 
			406.1,-22.5 406.1,-22.5 		"/>
		<polygon fill="#FBB216" stroke="#F6921E" points="346.2,23.4 342.8,20.1 385.4,-22.5 385.4,-22.5 356.9,6.1 360.2,9.4 
			392.1,-22.5 392.1,-22.5 		"/>
		<polygon fill="#FBB216" stroke="#F6921E" points="371.4,-22.5 371.4,-22.5 342.8,6.1 346.2,9.4 378.1,-22.5 378.1,-22.5 340,15.6 
			340,8.9 		"/>
		<rect x="348.7" y="-26.1" fill="#FBB216" stroke="#F6921E" width="0" height="24.6"/>
		<rect x="352.1" y="-27.5" fill="#FBB216" stroke="#F6921E" width="0" height="34"/>
		<rect x="345.1" y="-24.5" fill="#FBB216" stroke="#F6921E" width="0" height="14"/>
		<polygon fill="#FBB216" stroke="#F6921E" points="456.8,4.2 456.8,7.9 454.9,6.1 		"/>
		<polygon fill="#FBB216" stroke="#F6921E" points="440.9,6.1 456.8,-9.8 456.8,-9.8 454.9,-7.9 456.8,-6.1 456.8,-3.1 444.3,9.4 		
			"/>
		<polygon fill="#FBB216" stroke="#F6921E" points="430.2,9.4 426.9,6.1 452.8,-19.8 452.8,-19.8 440.9,-7.9 444.3,-4.6 
			455.7,-16.1 455.7,-16.1 		"/>
		<polygon fill="#FBB216" stroke="#F6921E" points="416.2,9.4 412.9,6.1 441.5,-22.5 441.5,-22.5 426.9,-7.9 430.2,-4.6 
			447.9,-22.3 447.9,-22.3 		"/>
		<polygon fill="#FBB216" stroke="#F6921E" points="402.2,9.4 398.9,6.1 427.5,-22.5 427.5,-22.5 412.9,-7.9 416.2,-4.6 
			434.1,-22.5 434.1,-22.5 		"/>
		<polygon fill="#FBB216" stroke="#F6921E" points="388.2,9.4 384.9,6.1 413.5,-22.5 413.5,-22.5 398.9,-7.9 402.2,-4.6 
			420.1,-22.5 420.1,-22.5 		"/>
		<polygon fill="#FBB216" stroke="#F6921E" points="374.2,9.4 370.9,6.1 399.4,-22.5 399.4,-22.5 384.9,-7.9 388.2,-4.6 
			406.1,-22.5 406.1,-22.5 		"/>
		<polygon fill="#FBB216" stroke="#F6921E" points="360.2,9.4 356.9,6.1 385.4,-22.5 385.4,-22.5 370.9,-7.9 374.2,-4.6 
			392.1,-22.5 392.1,-22.5 		"/>
		<polygon fill="#FBB216" stroke="#F6921E" points="346.2,9.4 342.8,6.1 371.4,-22.5 371.4,-22.5 356.9,-7.9 360.2,-4.6 
			378.1,-22.5 378.1,-22.5 		"/>
		<polygon fill="#FBB216" stroke="#F6921E" points="357.4,-22.5 357.4,-22.5 342.8,-7.9 346.2,-4.6 364.1,-22.5 364.1,-22.5 
			340,1.6 340,-5.1 		"/>
		<rect x="345.1" y="-24.5" fill="#FBB216" stroke="#F6921E" width="0" height="14"/>
		<polygon fill="#FBB216" stroke="#F6921E" points="456.8,-9.8 456.8,-6.1 454.9,-7.9 		"/>
		<path fill="#FBB216" stroke="#F6921E" d="M444.3-4.6l-3.3-3.3l11.9-11.9c1.2,1,2.2,2.3,2.9,3.8L444.3-4.6z"/>
		<polygon fill="#FBB216" stroke="#F6921E" points="430.2,-4.6 426.9,-7.9 441.5,-22.5 441.5,-22.5 440.9,-22 444.3,-18.6 
			447.9,-22.3 447.9,-22.3 		"/>
		<polygon fill="#FBB216" stroke="#F6921E" points="416.2,-4.6 412.9,-7.9 427.5,-22.5 427.5,-22.5 426.9,-22 430.2,-18.6 
			434.1,-22.5 434.1,-22.5 		"/>
		<polygon fill="#FBB216" stroke="#F6921E" points="402.2,-4.6 398.9,-7.9 413.5,-22.5 413.5,-22.5 412.9,-22 416.2,-18.6 
			420.1,-22.5 420.1,-22.5 		"/>
		<polygon fill="#FBB216" stroke="#F6921E" points="388.2,-4.6 384.9,-7.9 399.4,-22.5 399.4,-22.5 398.9,-22 402.2,-18.6 
			406.1,-22.5 406.1,-22.5 		"/>
		<polygon fill="#FBB216" stroke="#F6921E" points="374.2,-4.6 370.9,-7.9 385.4,-22.5 385.4,-22.5 384.9,-22 388.2,-18.6 
			392.1,-22.5 392.1,-22.5 		"/>
		<polygon fill="#FBB216" stroke="#F6921E" points="360.2,-4.6 356.9,-7.9 371.4,-22.5 371.4,-22.5 370.9,-22 374.2,-18.6 
			378.1,-22.5 378.1,-22.5 		"/>
		<polygon fill="#FBB216" stroke="#F6921E" points="346.2,-4.6 342.8,-7.9 357.4,-22.5 357.4,-22.5 356.9,-22 360.2,-18.6 
			364.1,-22.5 364.1,-22.5 		"/>
		<path fill="#FBB216" stroke="#F6921E" d="M340.1-12.5c0.3-3.2,2-5.9,4.4-7.8l1.7,1.7l3.8-3.8l0,0L340.1-12.5z"/>
		<path fill="#FBB216" stroke="#F6921E" d="M444.3-18.6l-3.3-3.3l0.6-0.6h4.1c0.8,0,1.6,0.1,2.3,0.2L444.3-18.6z"/>
		<polygon fill="#FBB216" stroke="#F6921E" points="430.2,-18.6 426.9,-22 427.5,-22.5 434.1,-22.5 		"/>
		<polygon fill="#FBB216" stroke="#F6921E" points="416.2,-18.6 412.9,-22 413.5,-22.5 420.1,-22.5 		"/>
		<polygon fill="#FBB216" stroke="#F6921E" points="402.2,-18.6 398.9,-22 399.4,-22.5 406.1,-22.5 		"/>
		<polygon fill="#FBB216" stroke="#F6921E" points="388.2,-18.6 384.9,-22 385.4,-22.5 392.1,-22.5 		"/>
		<polygon fill="#FBB216" stroke="#F6921E" points="374.2,-18.6 370.9,-22 371.4,-22.5 378.1,-22.5 		"/>
		<polygon fill="#FBB216" stroke="#F6921E" points="360.2,-18.6 356.9,-22 357.4,-22.5 364.1,-22.5 		"/>
		<path fill="#FBB216" stroke="#F6921E" d="M346.2-18.6l-1.7-1.7c1.6-1.2,3.4-2,5.5-2.2L346.2-18.6z"/>
	</g>
</g>
<text transform="matrix(1 0 0 1 97.8855 359.1029)" fill="#0F702D" font-family="'Verdana'" font-size="71.6249">MIX</text>
<text transform="matrix(1 0 0 1 440.6682 355.0823)" fill="#CC6E09" font-family="'Verdana'" font-size="71.6249">MIX</text>
</svg>
